<?xml version="1.0" encoding="utf-8" standalone="no"?>
<!DOCTYPE svg PUBLIC "-//W3C//DTD SVG 1.1//EN"
  "http://www.w3.org/Graphics/SVG/1.1/DTD/svg11.dtd">
<!-- Created with matplotlib (http://matplotlib.org/) -->
<svg height="375pt" version="1.1" viewBox="0 0 511 375" width="511pt" xmlns="http://www.w3.org/2000/svg" xmlns:xlink="http://www.w3.org/1999/xlink">
 <defs>
  <style type="text/css">
*{stroke-linecap:square;stroke-linejoin:round;}
  </style>
 </defs>
 <g id="figure_1">
  <g id="patch_1">
   <path d="
M0 375.704
L511.476 375.704
L511.476 0
L0 0
z
" style="fill:none;opacity:0.0;"/>
  </g>
  <g id="axes_1">
   <g id="patch_2">
    <path d="
M46.6019 352.8
L493.002 352.8
L493.002 7.2
L46.6019 7.2
z
" style="fill:none;opacity:0.0;"/>
   </g>
   <g id="line2d_1">
    <path clip-path="url(#pdd4ef540ae)" d="
M46.6019 337.091
L63.3155 336.982
L67.601 336.81
L69.7438 336.834
L71.458 336.737
L71.8866 336.834
L72.3151 336.746
L73.1722 336.834
L74.8864 336.764
L75.7435 336.595
L77.0292 336.728
L79.172 336.71
L81.7433 336.622
L82.6004 336.719
L83.4575 336.578
L83.8861 336.206
L84.3146 336.41
L86.0288 336.365
L86.4574 336.242
L87.3145 336.321
L87.7431 336.233
L88.6002 336.401
L89.4573 336.259
L91.1715 336.357
L92.4571 336.293
L93.3143 336.165
L94.1714 336.293
L94.5999 336.165
L95.8856 336.229
L96.3141 335.59
L96.7427 336.069
L98.8855 336.165
L101.885 335.973
L102.314 336.037
L102.742 335.846
L105.742 335.59
L106.171 335.303
L106.599 335.463
L107.885 335.367
L108.314 335.207
L109.171 335.175
L109.599 334.92
L110.885 335.016
L111.314 334.824
L112.171 334.664
L112.599 334.313
L113.885 334.409
L114.313 334.633
L114.742 334.186
L115.171 334.186
L116.028 333.739
L116.456 333.739
L116.885 333.515
L117.313 333.515
L117.742 333.068
L118.17 333.068
L119.885 331.28
L120.313 331.28
L120.742 330.833
L121.17 331.057
L121.599 330.61
L122.027 329.939
L122.456 329.716
L122.884 329.269
L123.313 329.269
L123.742 328.598
L124.17 327.705
L124.599 328.151
L125.456 326.364
L125.884 326.587
L126.313 325.693
L126.741 326.14
L127.17 325.023
L127.599 324.576
L128.456 324.576
L128.884 323.682
L129.313 323.235
L129.741 322.564
L130.17 322.564
L130.598 321.447
L131.027 321
L131.456 319.659
L131.884 317.648
L132.313 317.201
L132.741 316.977
L133.17 315.636
L133.598 314.742
L134.027 316.083
L134.455 315.636
L135.313 315.636
L135.741 314.966
L136.17 316.307
L137.455 316.307
L137.884 314.327
L138.312 315.317
L138.741 315.317
L139.17 316.307
L139.598 315.317
L140.027 315.317
L140.884 313.338
L142.169 313.338
L142.598 311.358
L143.027 310.368
L143.455 310.368
L143.884 309.379
L144.312 307.399
L144.741 306.41
L145.169 306.41
L145.598 305.42
L146.026 301.461
L146.455 302.451
L146.884 301.461
L147.312 299.482
L147.741 299.482
L148.169 297.502
L148.598 293.543
L149.026 297.502
L149.455 294.533
L149.883 294.533
L150.312 290.574
L150.74 289.584
L151.169 287.605
L151.598 287.605
L152.026 285.625
L152.883 283.646
L153.312 280.677
L154.597 274.738
L155.026 267.81
L155.455 267.81
L155.883 265.831
L156.312 264.841
L156.74 261.872
L157.169 256.923
L157.597 246.037
L158.026 243.067
L158.454 249.006
L158.883 246.908
L159.74 238.519
L161.026 232.228
L161.454 232.228
L161.883 230.13
L162.311 232.228
L162.74 228.033
L163.169 230.13
L163.597 221.741
L164.026 217.547
L164.454 217.547
L164.883 221.741
L165.311 215.449
L165.74 219.644
L166.168 217.547
L166.597 213.352
L167.026 211.255
L167.454 211.255
L167.883 204.963
L168.74 204.963
L169.168 200.769
L169.597 198.671
L170.025 194.477
L170.454 194.477
L170.883 192.38
L171.311 183.99
L171.74 186.088
L172.168 183.99
L172.597 171.407
L173.025 173.504
L173.882 165.115
L174.74 173.504
L175.168 167.212
L176.025 163.018
L176.454 165.115
L176.882 160.921
L177.311 158.823
L177.739 158.823
L178.168 148.337
L178.596 163.018
L179.025 154.629
L179.454 152.531
L179.882 131.559
L180.311 127.364
L180.739 139.948
L181.168 133.974
L181.596 125.013
L182.025 122.026
L182.453 122.026
L182.882 116.052
L183.311 116.052
L183.739 125.013
L184.168 122.026
L184.596 116.052
L185.025 119.039
L185.453 110.078
L187.168 98.1297
L187.596 107.091
L188.025 101.117
L188.453 107.091
L188.882 107.091
L189.31 104.104
L189.739 110.078
L191.025 101.117
L191.453 95.1426
L191.882 98.1297
L192.31 98.1297
L192.739 92.1556
L193.167 95.1426
L194.024 89.1686
L194.453 83.1946
L194.882 89.1686
L195.31 80.2076
L195.739 83.1946
L196.167 83.1946
L196.596 59.2985
L197.024 80.2076
L197.453 74.2335
L198.31 74.2335
L198.739 77.2206
L199.167 74.2335
L199.596 83.1946
L200.024 71.2465
L200.453 71.2465
L200.881 77.2206
L201.31 71.2465
L201.738 71.2465
L202.596 38.3894
L203.024 56.3114
L203.453 68.7905
L203.881 59.4312
L204.31 56.3114
L204.738 56.3114
L205.167 50.0719
L205.595 56.3114
L206.024 68.7905
L206.453 53.1917
L206.881 65.6708
L207.738 59.4312
L208.167 53.1917
L208.595 53.1917
L209.024 56.3114
L209.881 43.8324
L210.309 62.551
L211.167 68.7905
L211.595 75.0301
L212.024 59.4312
L212.452 71.9103
L212.881 56.3114
L213.738 56.3114
L214.166 50.0719
L214.595 46.9521
L215.024 50.0719
L215.452 50.0719
L215.881 43.8324
L216.309 40.7126
L216.738 56.3114
L217.166 50.0719
L217.595 46.9521
L218.023 46.9521
L218.452 40.7126
L219.309 53.1917
L219.738 53.1917
L220.166 59.4312
L221.023 53.1917
L221.452 56.3114
L221.88 53.1917
L222.309 56.3114
L222.738 62.551
L223.166 59.4312
L223.595 62.551
L224.023 56.3114
L224.452 46.9521
L224.88 25.1137
L225.309 53.1917
L225.737 72.1183
L226.166 53.1917
L226.595 49.4064
L227.023 56.977
L227.452 53.1917
L227.88 56.977
L228.309 49.4064
L228.737 49.4064
L229.166 45.621
L229.594 56.977
L230.023 56.977
L230.452 60.7623
L230.88 56.977
L232.166 56.977
L232.594 53.1917
L233.023 56.977
L233.451 56.977
L233.88 60.7623
L234.309 49.4064
L234.737 56.977
L235.166 60.7623
L235.594 49.4064
L236.023 49.4064
L236.451 56.977
L236.88 60.7623
L237.308 56.977
L237.737 64.5476
L238.165 56.977
L238.594 64.5476
L239.023 56.977
L239.451 53.1917
L239.88 56.977
L240.308 56.977
L240.737 68.333
L241.165 60.7623
L241.594 68.333
L242.022 22.9091
L242.451 51.0113
L242.88 51.0113
L243.308 63.1849
L243.737 47.9679
L244.165 54.0547
L244.594 54.0547
L245.022 60.1415
L245.451 60.1415
L246.308 54.0547
L246.737 60.1415
L247.165 32.7509
L247.594 41.8811
L248.022 60.1415
L249.736 71.2195
L250.165 65.6805
L250.594 73.989
L251.022 76.7585
L251.879 71.2195
L252.736 71.2195
L253.165 62.911
L253.593 68.45
L254.022 68.45
L254.879 79.528
L255.308 76.7585
L255.736 79.528
L256.165 62.911
L256.593 68.45
L257.45 62.911
L257.879 62.911
L258.308 68.45
L258.736 62.911
L259.165 68.45
L259.593 62.911
L260.022 73.989
L260.45 68.45
L260.879 82.2975
L261.307 73.989
L261.736 79.528
L262.165 82.2975
L262.593 87.8365
L263.022 90.606
L263.879 90.606
L264.307 96.1449
L264.736 98.9144
L265.164 98.9144
L265.593 109.992
L266.022 101.684
L266.45 104.453
L266.879 104.453
L267.307 107.223
L267.736 112.762
L268.164 109.992
L268.593 123.84
L269.021 115.531
L269.45 98.9144
L270.307 118.301
L271.164 118.301
L271.593 120.511
L272.021 116.091
L272.45 122.721
L272.878 120.511
L273.307 122.721
L274.164 118.301
L274.593 118.301
L275.021 116.091
L275.45 118.301
L275.878 129.351
L276.307 127.141
L276.735 122.721
L277.164 129.351
L277.592 129.351
L278.021 122.721
L278.021 122.721" style="fill:none;stroke:#0000ff;"/>
   </g>
   <g id="line2d_2">
    <path clip-path="url(#pdd4ef540ae)" d="
M46.6019 337.07
L74.2787 336.917
L86.7779 336.64
L94.8131 336.26
L101.063 335.755
L105.973 335.153
L110.437 334.374
L114.008 333.535
L117.133 332.593
L120.258 331.406
L122.936 330.147
L125.615 328.619
L127.847 327.1
L130.079 325.319
L132.311 323.235
L134.543 320.804
L136.775 317.974
L138.56 315.387
L140.346 312.48
L142.131 309.222
L143.917 305.582
L145.703 301.528
L147.935 295.833
L150.167 289.389
L152.399 282.153
L154.631 274.092
L156.863 265.195
L159.095 255.476
L161.773 242.789
L164.898 226.75
L168.469 207.198
L179.183 147.525
L182.307 131.82
L184.986 119.494
L187.218 110.121
L189.45 101.602
L191.682 93.9449
L193.914 87.1299
L196.146 81.1208
L198.378 75.8679
L200.163 72.1715
L201.949 68.891
L203.735 65.9944
L205.52 63.4505
L207.306 61.2292
L209.091 59.302
L210.877 57.6425
L213.109 55.9081
L215.341 54.5126
L217.573 53.42
L219.805 52.6002
L222.037 52.0285
L224.269 51.6857
L226.501 51.5576
L228.733 51.6348
L230.965 51.9122
L233.197 52.3891
L235.429 53.0689
L237.661 53.9588
L239.893 55.0699
L242.125 56.4167
L244.357 58.0176
L246.589 59.8939
L248.821 62.0706
L251.053 64.5753
L253.285 67.4381
L255.517 70.6914
L257.749 74.3686
L259.981 78.5037
L262.213 83.1298
L264.445 88.278
L266.677 93.9754
L268.909 100.243
L271.141 107.095
L273.819 116.092
L276.498 125.917
L279.623 138.361
L282.747 151.736
L286.765 169.99
L301.05 236.234
L304.175 249.234
L307.299 261.231
L309.978 270.633
L312.656 279.186
L314.888 285.662
L317.12 291.557
L319.352 296.892
L321.584 301.692
L323.816 305.992
L326.048 309.826
L328.28 313.231
L330.512 316.245
L332.744 318.905
L334.976 321.245
L337.208 323.3
L339.887 325.432
L342.565 327.247
L345.243 328.787
L347.922 330.093
L351.047 331.364
L354.171 332.409
L357.743 333.374
L361.76 334.227
L366.224 334.949
L371.581 335.58
L377.831 336.087
L385.866 336.497
L396.579 336.797
L412.203 336.985
L441.666 337.076
L493.002 337.09
L493.002 337.09" style="fill:none;stroke:#ff0000;"/>
   </g>
   <g id="line2d_3">
    <path clip-path="url(#pdd4ef540ae)" d="
M46.6019 274.255
L493.002 274.255" style="fill:none;stroke:#008000;stroke-dasharray:6.000000,6.000000;stroke-dashoffset:0.0;stroke-linecap:butt;"/>
   </g>
   <g id="matplotlib.axis_1">
    <g id="xtick_1">
     <g id="line2d_4">
      <defs>
       <path d="
M0 0
L0 -4" id="mcb557df647" style="stroke:#000000;stroke-linecap:butt;stroke-width:0.5;"/>
      </defs>
      <g>
       <use style="stroke:#000000;stroke-linecap:butt;stroke-width:0.5;" x="46.601875" xlink:href="#mcb557df647" y="352.8"/>
      </g>
     </g>
     <g id="line2d_5">
      <defs>
       <path d="
M0 0
L0 4" id="mdad270ee8e" style="stroke:#000000;stroke-linecap:butt;stroke-width:0.5;"/>
      </defs>
      <g>
       <use style="stroke:#000000;stroke-linecap:butt;stroke-width:0.5;" x="46.601875" xlink:href="#mdad270ee8e" y="7.2"/>
      </g>
     </g>
     <g id="text_1">
      <!-- 2004 -->
      <defs>
       <path d="
M25.0938 62.7031
C15.2031 62.7031 5 50.5 5 30.5938
C5 10.4062 15.2969 -1.20312 25.2031 -1.20312
C34.2031 -1.20312 44.9062 8.59375 44.9062 30.0938
C44.9062 51.2969 34.7031 62.7031 25.0938 62.7031
M34.7969 48.4062
L12.9062 20
C12 23.5 11.5 27.4062 11.5 31.7969
C11.5 47.7969 18.7969 56.5938 25 56.5938
C28.4062 56.5938 32.0938 53.9062 34.7969 48.4062
M37.0938 41.7969
C38 38.2969 38.4062 34.0938 38.4062 29.2031
C38.4062 11.7969 30.9062 5.20312 25.4062 5.20312
C21.7031 5.20312 17.9062 8.20312 15.2031 13.7031
z
" id="Inconsolata-30"/>
       <path d="
M7.70312 52.5938
L12.7969 48.5
C13.4062 49.4062 13.0938 50 13.7031 50.7969
C15.2031 53.0938 18.9062 56.5 24.2969 56.5
C31 56.5 36.2969 51.4062 36.2969 44.7031
C36.2969 37.0938 29.9062 31.5938 25.4062 27.5
C18.2969 21.0938 12.5 14.7031 7.29688 4.40625
L7.29688 0
L43.9062 0
L43.9062 6.90625
C43.2031 7.20312 42.7031 6.70312 42.5 6.5
C42.0938 6.09375 41.9062 6.09375 41.5 6.09375
L15.2969 6.09375
C20.5 15.0938 27.7969 21.2969 32.2969 25.5
C36.7969 29.7969 43.2031 36.2031 43.2031 45.2031
C43.2031 54.9062 35.2969 62.7031 25.2031 62.7031
C18.0938 62.7031 11.4062 58.9062 7.70312 52.5938" id="Inconsolata-32"/>
       <path d="
M31.2969 62.2969
L4.79688 22.4062
L4.79688 17.2031
L29.9062 17.2031
L29.9062 0
L37.0938 0
L37.0938 17.0938
L45.2031 17.0938
L45.2031 23.2969
L37.0938 23.2969
L37.0938 62.2969
z

M30 51.2031
L30 23.2969
L11.7031 23.2969
z
" id="Inconsolata-34"/>
      </defs>
      <g transform="translate(35.3275 368.324375)scale(0.12 -0.12)">
       <use xlink:href="#Inconsolata-32"/>
       <use x="49.9999847412" xlink:href="#Inconsolata-30"/>
       <use x="99.9999694824" xlink:href="#Inconsolata-30"/>
       <use x="149.999954224" xlink:href="#Inconsolata-34"/>
      </g>
     </g>
    </g>
    <g id="xtick_2">
     <g id="line2d_6">
      <g>
       <use style="stroke:#000000;stroke-linecap:butt;stroke-width:0.5;" x="91.241875" xlink:href="#mcb557df647" y="352.8"/>
      </g>
     </g>
     <g id="line2d_7">
      <g>
       <use style="stroke:#000000;stroke-linecap:butt;stroke-width:0.5;" x="91.241875" xlink:href="#mdad270ee8e" y="7.2"/>
      </g>
     </g>
     <g id="text_2">
      <!-- 2006 -->
      <defs>
       <path d="
M28.7031 63
C21.2031 63 13.2031 58.4062 9.29688 47.5
C7.20312 41.5938 6.70312 34.2969 6.70312 28.2969
C6.70312 21 7.40625 13.2031 11.4062 7.20312
C15 1.70312 20.5938 -1.09375 26.0938 -1.09375
C35.5938 -1.09375 43.9062 6.90625 43.9062 19.7969
C43.9062 32.7031 35.5938 40.2031 26.7969 40.2031
C21.4062 40.2031 16.2969 37.2969 13.5938 32.7031
C14 54 24.2031 56.7969 28.7031 56.7969
C32.7969 56.7969 35.5938 54.5938 36 54.2031
C36.5938 53.5 36.5938 52.5938 37.5 51.9062
L42.2969 57.2969
C38.7031 60.9062 33.7031 63 28.7031 63
M26.0938 34
C31.0938 34 37.0938 30.0938 37.0938 19.4062
C37.0938 9.70312 31.7031 5.09375 26.4062 5.09375
C18.7969 5.09375 13.0938 14 13.9062 25.7031
C16.7031 30.7969 21.5 34 26.0938 34" id="Inconsolata-36"/>
      </defs>
      <g transform="translate(80.0453125 368.36)scale(0.12 -0.12)">
       <use xlink:href="#Inconsolata-32"/>
       <use x="49.9999847412" xlink:href="#Inconsolata-30"/>
       <use x="99.9999694824" xlink:href="#Inconsolata-30"/>
       <use x="149.999954224" xlink:href="#Inconsolata-36"/>
      </g>
     </g>
    </g>
    <g id="xtick_3">
     <g id="line2d_8">
      <g>
       <use style="stroke:#000000;stroke-linecap:butt;stroke-width:0.5;" x="135.881875" xlink:href="#mcb557df647" y="352.8"/>
      </g>
     </g>
     <g id="line2d_9">
      <g>
       <use style="stroke:#000000;stroke-linecap:butt;stroke-width:0.5;" x="135.881875" xlink:href="#mdad270ee8e" y="7.2"/>
      </g>
     </g>
     <g id="text_3">
      <!-- 2008 -->
      <defs>
       <path d="
M25.7969 63
C16.2031 63 8.90625 56.0938 8.90625 47.7031
C8.90625 41.5938 12.7969 36 18.4062 33.0938
C11 29.5938 6 22.7969 6 15.5938
C6 6.29688 14.2031 -1.09375 24.9062 -1.09375
C35.7969 -1.09375 44.0938 6.5 44.0938 16
C44.0938 23.4062 39.0938 30 32.0938 33.2969
C38.0938 36.4062 42 42.2969 42 48.2969
C42 56.5 34.9062 63 25.7969 63
M23.7031 30.2031
C31.7031 27.7031 37 22.2031 37 16.0938
C37 10.0938 31.9062 5.20312 25.2031 5.20312
C18.4062 5.20312 13.2031 10.2969 13.2031 16.5
C13.2031 22.4062 17.7969 27.7969 23.7031 30.2031
M25.2031 57.2031
C30.7969 57.2031 35.2031 53 35.2031 47.7969
C35.2031 43 31.5 38.4062 26.5938 35.7969
C26.5938 35.7969 15.5938 40 15.5938 48.2969
C15.5938 53.2031 19.7969 57.2031 25.2031 57.2031" id="Inconsolata-38"/>
      </defs>
      <g transform="translate(124.6740625 368.36)scale(0.12 -0.12)">
       <use xlink:href="#Inconsolata-32"/>
       <use x="49.9999847412" xlink:href="#Inconsolata-30"/>
       <use x="99.9999694824" xlink:href="#Inconsolata-30"/>
       <use x="149.999954224" xlink:href="#Inconsolata-38"/>
      </g>
     </g>
    </g>
    <g id="xtick_4">
     <g id="line2d_10">
      <g>
       <use style="stroke:#000000;stroke-linecap:butt;stroke-width:0.5;" x="180.521875" xlink:href="#mcb557df647" y="352.8"/>
      </g>
     </g>
     <g id="line2d_11">
      <g>
       <use style="stroke:#000000;stroke-linecap:butt;stroke-width:0.5;" x="180.521875" xlink:href="#mdad270ee8e" y="7.2"/>
      </g>
     </g>
     <g id="text_4">
      <!-- 2010 -->
      <defs>
       <path d="
M29.9062 62.2969
L25.0938 62.2969
L8.79688 53.7969
L10.4062 49.9062
L22.9062 53.5938
L22.9062 -0.09375
L29.9062 -0.09375
z
" id="Inconsolata-31"/>
      </defs>
      <g transform="translate(169.2653125 368.324375)scale(0.12 -0.12)">
       <use xlink:href="#Inconsolata-32"/>
       <use x="49.9999847412" xlink:href="#Inconsolata-30"/>
       <use x="99.9999694824" xlink:href="#Inconsolata-31"/>
       <use x="149.999954224" xlink:href="#Inconsolata-30"/>
      </g>
     </g>
    </g>
    <g id="xtick_5">
     <g id="line2d_12">
      <g>
       <use style="stroke:#000000;stroke-linecap:butt;stroke-width:0.5;" x="225.161875" xlink:href="#mcb557df647" y="352.8"/>
      </g>
     </g>
     <g id="line2d_13">
      <g>
       <use style="stroke:#000000;stroke-linecap:butt;stroke-width:0.5;" x="225.161875" xlink:href="#mdad270ee8e" y="7.2"/>
      </g>
     </g>
     <g id="text_5">
      <!-- 2012 -->
      <g transform="translate(213.9653125 368.324375)scale(0.12 -0.12)">
       <use xlink:href="#Inconsolata-32"/>
       <use x="49.9999847412" xlink:href="#Inconsolata-30"/>
       <use x="99.9999694824" xlink:href="#Inconsolata-31"/>
       <use x="149.999954224" xlink:href="#Inconsolata-32"/>
      </g>
     </g>
    </g>
    <g id="xtick_6">
     <g id="line2d_14">
      <g>
       <use style="stroke:#000000;stroke-linecap:butt;stroke-width:0.5;" x="269.801875" xlink:href="#mcb557df647" y="352.8"/>
      </g>
     </g>
     <g id="line2d_15">
      <g>
       <use style="stroke:#000000;stroke-linecap:butt;stroke-width:0.5;" x="269.801875" xlink:href="#mdad270ee8e" y="7.2"/>
      </g>
     </g>
     <g id="text_6">
      <!-- 2014 -->
      <g transform="translate(258.5275 368.324375)scale(0.12 -0.12)">
       <use xlink:href="#Inconsolata-32"/>
       <use x="49.9999847412" xlink:href="#Inconsolata-30"/>
       <use x="99.9999694824" xlink:href="#Inconsolata-31"/>
       <use x="149.999954224" xlink:href="#Inconsolata-34"/>
      </g>
     </g>
    </g>
    <g id="xtick_7">
     <g id="line2d_16">
      <g>
       <use style="stroke:#000000;stroke-linecap:butt;stroke-width:0.5;" x="314.441875" xlink:href="#mcb557df647" y="352.8"/>
      </g>
     </g>
     <g id="line2d_17">
      <g>
       <use style="stroke:#000000;stroke-linecap:butt;stroke-width:0.5;" x="314.441875" xlink:href="#mdad270ee8e" y="7.2"/>
      </g>
     </g>
     <g id="text_7">
      <!-- 2016 -->
      <g transform="translate(303.2453125 368.36)scale(0.12 -0.12)">
       <use xlink:href="#Inconsolata-32"/>
       <use x="49.9999847412" xlink:href="#Inconsolata-30"/>
       <use x="99.9999694824" xlink:href="#Inconsolata-31"/>
       <use x="149.999954224" xlink:href="#Inconsolata-36"/>
      </g>
     </g>
    </g>
    <g id="xtick_8">
     <g id="line2d_18">
      <g>
       <use style="stroke:#000000;stroke-linecap:butt;stroke-width:0.5;" x="359.081875" xlink:href="#mcb557df647" y="352.8"/>
      </g>
     </g>
     <g id="line2d_19">
      <g>
       <use style="stroke:#000000;stroke-linecap:butt;stroke-width:0.5;" x="359.081875" xlink:href="#mdad270ee8e" y="7.2"/>
      </g>
     </g>
     <g id="text_8">
      <!-- 2018 -->
      <g transform="translate(347.8740625 368.36)scale(0.12 -0.12)">
       <use xlink:href="#Inconsolata-32"/>
       <use x="49.9999847412" xlink:href="#Inconsolata-30"/>
       <use x="99.9999694824" xlink:href="#Inconsolata-31"/>
       <use x="149.999954224" xlink:href="#Inconsolata-38"/>
      </g>
     </g>
    </g>
    <g id="xtick_9">
     <g id="line2d_20">
      <g>
       <use style="stroke:#000000;stroke-linecap:butt;stroke-width:0.5;" x="403.721875" xlink:href="#mcb557df647" y="352.8"/>
      </g>
     </g>
     <g id="line2d_21">
      <g>
       <use style="stroke:#000000;stroke-linecap:butt;stroke-width:0.5;" x="403.721875" xlink:href="#mdad270ee8e" y="7.2"/>
      </g>
     </g>
     <g id="text_9">
      <!-- 2020 -->
      <g transform="translate(392.4653125 368.324375)scale(0.12 -0.12)">
       <use xlink:href="#Inconsolata-32"/>
       <use x="49.9999847412" xlink:href="#Inconsolata-30"/>
       <use x="99.9999694824" xlink:href="#Inconsolata-32"/>
       <use x="149.999954224" xlink:href="#Inconsolata-30"/>
      </g>
     </g>
    </g>
    <g id="xtick_10">
     <g id="line2d_22">
      <g>
       <use style="stroke:#000000;stroke-linecap:butt;stroke-width:0.5;" x="448.361875" xlink:href="#mcb557df647" y="352.8"/>
      </g>
     </g>
     <g id="line2d_23">
      <g>
       <use style="stroke:#000000;stroke-linecap:butt;stroke-width:0.5;" x="448.361875" xlink:href="#mdad270ee8e" y="7.2"/>
      </g>
     </g>
     <g id="text_10">
      <!-- 2022 -->
      <g transform="translate(437.1653125 368.324375)scale(0.12 -0.12)">
       <use xlink:href="#Inconsolata-32"/>
       <use x="49.9999847412" xlink:href="#Inconsolata-30"/>
       <use x="99.9999694824" xlink:href="#Inconsolata-32"/>
       <use x="149.999954224" xlink:href="#Inconsolata-32"/>
      </g>
     </g>
    </g>
    <g id="xtick_11">
     <g id="line2d_24">
      <g>
       <use style="stroke:#000000;stroke-linecap:butt;stroke-width:0.5;" x="493.001875" xlink:href="#mcb557df647" y="352.8"/>
      </g>
     </g>
     <g id="line2d_25">
      <g>
       <use style="stroke:#000000;stroke-linecap:butt;stroke-width:0.5;" x="493.001875" xlink:href="#mdad270ee8e" y="7.2"/>
      </g>
     </g>
     <g id="text_11">
      <!-- 2024 -->
      <g transform="translate(481.7275 368.324375)scale(0.12 -0.12)">
       <use xlink:href="#Inconsolata-32"/>
       <use x="49.9999847412" xlink:href="#Inconsolata-30"/>
       <use x="99.9999694824" xlink:href="#Inconsolata-32"/>
       <use x="149.999954224" xlink:href="#Inconsolata-34"/>
      </g>
     </g>
    </g>
   </g>
   <g id="matplotlib.axis_2">
    <g id="ytick_1">
     <g id="line2d_26">
      <defs>
       <path d="
M0 0
L4 0" id="mc8fcea1516" style="stroke:#000000;stroke-linecap:butt;stroke-width:0.5;"/>
      </defs>
      <g>
       <use style="stroke:#000000;stroke-linecap:butt;stroke-width:0.5;" x="46.601875" xlink:href="#mc8fcea1516" y="337.090909091"/>
      </g>
     </g>
     <g id="line2d_27">
      <defs>
       <path d="
M0 0
L-4 0" id="m0d5b0a6425" style="stroke:#000000;stroke-linecap:butt;stroke-width:0.5;"/>
      </defs>
      <g>
       <use style="stroke:#000000;stroke-linecap:butt;stroke-width:0.5;" x="493.001875" xlink:href="#m0d5b0a6425" y="337.090909091"/>
      </g>
     </g>
     <g id="text_12">
      <!-- 0 -->
      <g transform="translate(33.813125 340.780909091)scale(0.12 -0.12)">
       <use xlink:href="#Inconsolata-30"/>
      </g>
     </g>
    </g>
    <g id="ytick_2">
     <g id="line2d_28">
      <g>
       <use style="stroke:#000000;stroke-linecap:butt;stroke-width:0.5;" x="46.601875" xlink:href="#mc8fcea1516" y="274.254545455"/>
      </g>
     </g>
     <g id="line2d_29">
      <g>
       <use style="stroke:#000000;stroke-linecap:butt;stroke-width:0.5;" x="493.001875" xlink:href="#m0d5b0a6425" y="274.254545455"/>
      </g>
     </g>
     <g id="text_13">
      <!-- 20 -->
      <g transform="translate(28.08875 277.944545455)scale(0.12 -0.12)">
       <use xlink:href="#Inconsolata-32"/>
       <use x="49.9999847412" xlink:href="#Inconsolata-30"/>
      </g>
     </g>
    </g>
    <g id="ytick_3">
     <g id="line2d_30">
      <g>
       <use style="stroke:#000000;stroke-linecap:butt;stroke-width:0.5;" x="46.601875" xlink:href="#mc8fcea1516" y="211.418181818"/>
      </g>
     </g>
     <g id="line2d_31">
      <g>
       <use style="stroke:#000000;stroke-linecap:butt;stroke-width:0.5;" x="493.001875" xlink:href="#m0d5b0a6425" y="211.418181818"/>
      </g>
     </g>
     <g id="text_14">
      <!-- 40 -->
      <g transform="translate(27.78875 215.108181818)scale(0.12 -0.12)">
       <use xlink:href="#Inconsolata-34"/>
       <use x="49.9999847412" xlink:href="#Inconsolata-30"/>
      </g>
     </g>
    </g>
    <g id="ytick_4">
     <g id="line2d_32">
      <g>
       <use style="stroke:#000000;stroke-linecap:butt;stroke-width:0.5;" x="46.601875" xlink:href="#mc8fcea1516" y="148.581818182"/>
      </g>
     </g>
     <g id="line2d_33">
      <g>
       <use style="stroke:#000000;stroke-linecap:butt;stroke-width:0.5;" x="493.001875" xlink:href="#m0d5b0a6425" y="148.581818182"/>
      </g>
     </g>
     <g id="text_15">
      <!-- 60 -->
      <g transform="translate(28.0175 152.289630682)scale(0.12 -0.12)">
       <use xlink:href="#Inconsolata-36"/>
       <use x="49.9999847412" xlink:href="#Inconsolata-30"/>
      </g>
     </g>
    </g>
    <g id="ytick_5">
     <g id="line2d_34">
      <g>
       <use style="stroke:#000000;stroke-linecap:butt;stroke-width:0.5;" x="46.601875" xlink:href="#mc8fcea1516" y="85.7454545455"/>
      </g>
     </g>
     <g id="line2d_35">
      <g>
       <use style="stroke:#000000;stroke-linecap:butt;stroke-width:0.5;" x="493.001875" xlink:href="#m0d5b0a6425" y="85.7454545455"/>
      </g>
     </g>
     <g id="text_16">
      <!-- 80 -->
      <g transform="translate(27.933125 89.4532670455)scale(0.12 -0.12)">
       <use xlink:href="#Inconsolata-38"/>
       <use x="49.9999847412" xlink:href="#Inconsolata-30"/>
      </g>
     </g>
    </g>
    <g id="ytick_6">
     <g id="line2d_36">
      <g>
       <use style="stroke:#000000;stroke-linecap:butt;stroke-width:0.5;" x="46.601875" xlink:href="#mc8fcea1516" y="22.9090909091"/>
      </g>
     </g>
     <g id="line2d_37">
      <g>
       <use style="stroke:#000000;stroke-linecap:butt;stroke-width:0.5;" x="493.001875" xlink:href="#m0d5b0a6425" y="22.9090909091"/>
      </g>
     </g>
     <g id="text_17">
      <!-- 100 -->
      <g transform="translate(22.26875 26.5990909091)scale(0.12 -0.12)">
       <use xlink:href="#Inconsolata-31"/>
       <use x="49.9999847412" xlink:href="#Inconsolata-30"/>
       <use x="99.9999694824" xlink:href="#Inconsolata-30"/>
      </g>
     </g>
    </g>
    <g id="text_18">
     <!-- Normalized weekly search queries -->
     <defs>
      <path d="
M5 0
L11.7031 0
L11.7031 49
L39.0938 -0.09375
L44.7031 -0.09375
L44.7031 59.7031
C44.7031 60.4062 44.7969 60.5938 45.0938 61.0938
C45.2031 61.2969 45.4062 61.7969 45.2969 62.2969
L37.9062 62.2969
L37.9062 16.0938
L11.7969 62.2969
L5 62.2969
z
" id="Inconsolata-4e"/>
      <path id="Inconsolata-20"/>
      <path d="
M4.5 45.5938
L23.0938 0.09375
L21.5938 -3.20312
C20.7969 -5.09375 19.9062 -7 18.5 -8.5
C16.5938 -10.5938 14.2031 -11.5 12.0938 -11.5
C8.70312 -11.5 7 -9.20312 6.70312 -8.79688
C6.40625 -8.29688 6.5 -7.59375 5.90625 -7.09375
L2.20312 -13.5938
C4.79688 -16.0938 8.29688 -17.4062 12.0938 -17.4062
C16.2031 -17.4062 20.5 -15.9062 23.5 -12.5
C25.5 -10.2031 26.5 -7.79688 27.5 -5.20312
L41.7031 32.5
C43.4062 36.7969 44.9062 41.2031 46.2969 45.7031
L38.7969 45.7031
C38 41.5 36.7031 37.5 35.2969 33.5
L26.5938 9
L13.2031 42.7031
C13.0938 43 13.0938 43.2031 13.0938 43.5
C13.0938 44.2031 13.5938 44.7031 13.5 45.5938
z
" id="Inconsolata-79"/>
      <path d="
M6.90625 0
L14.2969 0
L14.2969 26.2969
C14.2969 29.2969 14.5938 31.5938 16.5 34.0938
C18.2969 36.4062 22.7031 40.5 27.5 40.5
C29.7969 40.5 32.0938 39.5 33.7031 37.5938
C36.2031 34.5938 36.2031 30.7031 36.2031 27.5
L36.2031 0
L43.2969 0
L43.2969 27.7031
L43.2969 27.7031
C43.2969 31.2031 43.2031 35 41.5938 38.7031
C39.2969 43.7969 34.7031 46.7031 29.5 46.7031
C23.2969 46.7031 17.5938 42.7031 14.2969 37.5938
L14.2969 64.0938
C14.2969 64.4062 14.2969 64.7031 14.5938 65
C14.9062 65.2969 15.2969 65.5938 15.2969 66.0938
C15.2969 66.2031 15.2969 66.2969 15.2031 66.4062
L6.90625 66.4062
z
" id="Inconsolata-68"/>
      <path d="
M10.5938 45.7031
L10.5938 39.7969
L21.5938 39.7969
L21.5938 5.70312
L10 5.70312
L10 0
L39.5938 0
L39.5938 5.70312
L28.9062 5.70312
L28.9062 45.7031
z

M25.4062 65.5
C22.5 65.5 20.2031 63.2031 20.2031 60.4062
C20.2031 57.5938 22.5 55.2969 25.4062 55.2969
C28.2969 55.2969 30.5938 57.5938 30.5938 60.4062
C30.5938 63.2031 28.2969 65.5 25.4062 65.5" id="Inconsolata-69"/>
      <path d="
M6.20312 45.5938
L6.20312 20.0938
C6.20312 16.2031 6.20312 12.2031 8 8.09375
C10.5938 2.09375 16.2031 -1.20312 22.2031 -1.20312
C27.9062 -1.20312 33.2969 1.90625 36.2969 6.90625
L36.2031 3.5
C36.2031 2.29688 36.2031 1.09375 36.4062 0
L44 0
C43.5 1.29688 43.4062 2.79688 43.4062 4.09375
L43.4062 45.5938
L36.2031 45.5938
L36.2031 20.5
C36.2031 17 35.9062 14.2969 34.4062 11.5
C32.2969 7.59375 28.2031 4.70312 23.7969 4.70312
C20.2969 4.70312 16.9062 6.70312 15.0938 10.2969
C13.5 13.5 13.5 17.0938 13.5 20.0938
L13.5 45.5938
z
" id="Inconsolata-75"/>
      <path d="
M6.59375 66.4062
L6.59375 -0.09375
L13.7969 -0.09375
L13.7969 17.2031
L19.9062 22.7969
L38.5 -0.5
C38.5 -0.5 42.4062 -0.09375 47.0938 -0.09375
C47.4062 -0.09375 47.5938 -0.09375 47.7969 -0.09375
L25.4062 27.2031
L44.7031 45.2969
L42.0938 45.2969
C40.2969 45.2969 38.5 45.4062 36.7031 45.9062
L13.7969 24.5938
L13.7969 63.7969
C13.7969 64.2031 13.9062 64.5 14.2031 65
C14.5 65.2969 14.9062 65.7031 14.7969 66.4062
z
" id="Inconsolata-6b"/>
      <path d="
M37.0938 39
C34.9062 43.7031 30 46.7969 23.7031 46.7969
C15 46.7969 4.40625 40.5938 4.40625 23.2031
C4.40625 6.29688 13.7969 -1.09375 22.5938 -1.09375
C28.4062 -1.09375 33.7969 2.20312 36.7031 7.29688
L36.7031 3.29688
C36.7031 2.20312 36.7969 1.09375 37.0938 0
L44.2969 0
C43.9062 1.29688 43.9062 2.79688 43.9062 4.20312
L43.7969 63.5938
C43.7969 64.2031 43.7969 64.4062 44.2031 65
C44.4062 65.2969 44.7969 65.7969 44.7031 66.5
L37.0938 66.5
z

M24 40.9062
C28 40.9062 33.9062 38.7969 35.7031 32
C36.2969 29.9062 36.5 27.4062 36.5 22.2969
C36.5 18.7969 36.2969 16.2969 35.5 13.9062
C33.7969 8.5 29 5.29688 24.2969 5.29688
C19.0938 5.29688 11.4062 9.29688 11.4062 24.2969
C11.4062 37.4062 18.7031 40.9062 24 40.9062" id="Inconsolata-64"/>
      <path d="
M25.7969 46.7031
C14.9062 46.7031 4.79688 38.9062 4.79688 22.2969
C4.79688 7 14.2969 -1.09375 26.7031 -1.09375
C33.2969 -1.09375 39.2031 1.29688 43.0938 6
L39.0938 9.90625
C36.2031 6.5 31.7969 4.70312 27.2969 4.70312
C21.2031 4.70312 12.2969 8.09375 11.7969 21.7969
L44.2031 21.7969
C44.5 24.9062 44.4062 27.9062 43.9062 30.5
C41.7969 42.7969 33.2969 46.7031 25.7969 46.7031
M12 27.2969
C13.5 38.0938 20.4062 41.2031 25.2969 41.2031
C32.7031 41.2031 38 34.7031 37.0938 27.2969
z
" id="Inconsolata-65"/>
      <path d="
M37.2969 39
C37.2969 38.9062 34.0938 46.7969 24 46.7969
C14 46.7969 4.20312 38.7031 4.20312 23.2031
C4.20312 8.40625 12.9062 -1.09375 23 -1.09375
C28.7969 -1.09375 34.0938 2.20312 37 7.29688
L37 -16.7031
L44.0938 -16.7031
L44.0938 45.5938
L37.2969 45.5938
z

M24.2969 40.9062
C28.4062 40.9062 33.5938 38.7969 35.5938 33.2031
C36.5 30.5938 36.7031 27.7969 36.7031 22.2031
C36.7031 18.7969 36.5 16.2969 35.7969 13.9062
C34 8.5 29.2969 5.29688 24.5938 5.29688
C18 5.29688 11.4062 11.2969 11.4062 24.2031
C11.4062 36.2031 18.2031 40.9062 24.2969 40.9062" id="Inconsolata-71"/>
      <path d="
M45.5938 38.0938
C42 43.4062 35.9062 46.5938 28.5 46.5938
C15.0938 46.5938 5.59375 36.5 5.59375 22.7969
C5.59375 9 15.0938 -1.20312 28.0938 -1.20312
C34.4062 -1.20312 40.5938 1.40625 44.9062 6.09375
L40.7969 10.9062
C37.7031 7.40625 33.2031 5.40625 28.7031 5.40625
C19.7969 5.40625 13 12.7969 13 23.5
C13 33.9062 19.7031 40.4062 28.0938 40.4062
C35.9062 40.4062 39.5938 35 39.9062 34.4062
C40.2969 33.7031 39.7031 32.7031 40.5 32.0938
z
" id="Inconsolata-63"/>
      <path d="
M43.2031 39.5938
C39 44.2031 32.9062 46.7031 26.0938 46.7031
C15.5 46.7031 8.59375 40.7969 8.59375 34
C8.59375 26 17.2031 23.0938 19.7031 22.2031
C23.5938 20.7969 28.5938 19.5938 32 18
C35.7969 16.2031 36.5 13.7969 36.5 12.2031
C36.5 7.90625 31.2969 5 24.7969 5
C17 5 12 9.70312 10.5 11.2969
C10.2031 11.7031 10.2031 12 10.2031 12.4062
C10.2031 12.5 10.2969 13.0938 9.79688 13.2969
L5.59375 6.20312
C11 1.20312 18 -1.09375 24.9062 -1.09375
C37.4062 -1.09375 43.9062 6.29688 43.9062 13.2031
C43.9062 16.2969 42.5938 20.5 37.2031 23.5
C32.0938 26.4062 24.7031 27.4062 20.4062 29.5
C16.7031 31.2969 15.9062 33.5 15.9062 35.0938
C15.9062 38.7031 20.4062 41.2969 25.5 41.2969
C32.0938 41.2969 36.5 37.2969 38.2031 35
C38.5 34.7031 38.4062 34.4062 38.4062 34.0938
C38.4062 33.5 38.7969 33.2969 39 33.2969
z
" id="Inconsolata-73"/>
      <path d="
M9 40.2969
L12.5 35.7031
C16.2969 39.5938 21.4062 40.7969 25.7031 40.7969
C31.0938 40.7969 33.7969 38.5 35.0938 36.4062
C36.5938 33.9062 36.5 30.9062 36.5 28.5
L36.5 26.9062
L35.0938 26.9062
C28.2969 26.9062 21.0938 26.9062 15.2969 24.7969
C8.09375 22.2031 4.90625 16.7969 4.90625 11.7969
C4.90625 5.09375 10.7031 -1.20312 20.2031 -1.20312
C25.7969 -1.20312 31.5938 0.90625 36.5938 5
L36.5938 0
L43.4062 0
L43.4062 28.2969
C43.4062 32 43.2969 35.5 41.2031 39.0938
C38.2031 44 32.4062 46.5938 25.2969 46.5938
C19.2031 46.5938 13.2969 44.7031 9 40.2969
M36.7969 21.4062
L36.7969 18.2969
C36.7969 16 36.7969 13 33.7031 9.70312
C32 8 27.7031 4.29688 21.7031 4.29688
C15.5938 4.29688 12.0938 8.20312 12.0938 12.2031
C12.0938 15.5938 14.4062 19.2969 20.0938 20.7031
C24.2969 21.7031 30.4062 21.4062 35.2031 21.4062
z
" id="Inconsolata-61"/>
      <path d="
M1.5 45.7031
L10.7031 -0.09375
L17.2031 -0.09375
L25.2031 29.5
L33.7031 -0.09375
L40.4062 -0.09375
C43.5 15 46.0938 30.2969 48 45.5938
L41.4062 45.5938
C41.5938 40.0938 41.0938 35 37.0938 9
L27.5 41.4062
L23.0938 41.4062
L15.2031 8.90625
L8.59375 41.9062
C8.40625 42.5938 8.40625 42.9062 8.70312 43.7031
C8.79688 44.2031 9.09375 44.9062 8.79688 45.7031
z
" id="Inconsolata-77"/>
      <path d="
M46 22.5938
C46 38.4062 36 46.5938 25.5938 46.5938
C14 46.5938 4 36.5938 4 22.4062
C4 8.5 13.9062 -1.29688 25.4062 -1.29688
C36.2031 -1.29688 46 7.40625 46 22.5938
M25.0938 40.5
C31.7031 40.5 38.7031 34.7969 38.7031 22.2969
C38.7031 10.7969 32.0938 5 25.5 5
C18.2031 5 11.5938 11.7969 11.5938 23.0938
C11.5938 34.2969 18.0938 40.5 25.0938 40.5" id="Inconsolata-6f"/>
      <path d="
M3.70312 0
L10.2969 0
L10.2969 30.4062
C10.2969 32.5938 10.5 34.5938 11.7969 37
C13.4062 40 15.4062 41.2031 17.2969 41.2031
C18.9062 41.2031 20.7031 40.2031 21.5 37.7031
C22.0938 35.7969 22 33.5938 22 31.7031
L22 0
L28.7031 0
L28.7031 30.2031
C28.7031 32.5938 28.9062 34.5 30.5938 37.4062
C31.4062 38.5938 33.0938 41.5 35.9062 41.5
C37.4062 41.5 38.7969 40.5938 39.5 38.9062
C40.4062 37 40.2031 34.4062 40.2031 32.2969
L40.2031 -0.09375
L47 -0.09375
L47 32.4062
C47 36.2031 47.0938 40 45.0938 43.0938
C43.4062 45.7031 40.5 46.7031 38 46.7031
C33.5938 46.7031 29.5 44.0938 27.7031 40.0938
C27 43.9062 23.7969 46.7031 19.7031 46.7031
C15.9062 46.7031 12.4062 44.2969 10.2969 41.0938
L10.4062 45.5938
L3.70312 45.5938
z
" id="Inconsolata-6d"/>
      <path d="
M9.90625 45.5938
L9.90625 -0.09375
L17.0938 -0.09375
L17.0938 22.0938
C17.0938 24.9062 17.2031 27.9062 20.2969 32.7969
C24.5 39.4062 29.9062 40.5 33.2031 40.5
C37 40.5 39.4062 38.7031 40.7031 37.0938
C41.2969 36.2969 41.5938 35.5 42.4062 34.7969
L45.7969 41.7031
C42.9062 44.7031 38.7031 46.7031 33.5938 46.7031
C26.9062 46.7031 20.0938 43.2969 17.0938 36.7969
L17.4062 45.5938
z
" id="Inconsolata-72"/>
      <path d="
M7 45.7031
L7 39.4062
L33.2969 39.4062
L5 4.79688
L5 -0.09375
L44.9062 -0.09375
L44.9062 6.70312
C43.7031 6.90625 43.2969 6.09375 41.9062 6.09375
L14.7031 6.09375
L42.5938 40.7969
L42.5938 45.7031
z
" id="Inconsolata-7a"/>
      <path d="
M8.40625 66.4062
L8.40625 60.5938
L21.4062 60.5938
L21.4062 5.70312
L7.79688 5.70312
L7.79688 0
L42.0938 0
L42.0938 5.70312
L28.5938 5.70312
L28.5938 66.4062
z
" id="Inconsolata-6c"/>
     </defs>
     <g transform="translate(17.26875 273.545625)rotate(-90.0)scale(0.12 -0.12)">
      <use xlink:href="#Inconsolata-4e"/>
      <use x="49.9999847412" xlink:href="#Inconsolata-6f"/>
      <use x="99.9999694824" xlink:href="#Inconsolata-72"/>
      <use x="149.999954224" xlink:href="#Inconsolata-6d"/>
      <use x="199.999938965" xlink:href="#Inconsolata-61"/>
      <use x="249.999923706" xlink:href="#Inconsolata-6c"/>
      <use x="299.999908447" xlink:href="#Inconsolata-69"/>
      <use x="349.999893188" xlink:href="#Inconsolata-7a"/>
      <use x="399.99987793" xlink:href="#Inconsolata-65"/>
      <use x="449.999862671" xlink:href="#Inconsolata-64"/>
      <use x="499.999847412" xlink:href="#Inconsolata-20"/>
      <use x="549.999832153" xlink:href="#Inconsolata-77"/>
      <use x="599.999816895" xlink:href="#Inconsolata-65"/>
      <use x="649.999801636" xlink:href="#Inconsolata-65"/>
      <use x="699.999786377" xlink:href="#Inconsolata-6b"/>
      <use x="749.999771118" xlink:href="#Inconsolata-6c"/>
      <use x="799.999755859" xlink:href="#Inconsolata-79"/>
      <use x="849.999740601" xlink:href="#Inconsolata-20"/>
      <use x="899.999725342" xlink:href="#Inconsolata-73"/>
      <use x="949.999710083" xlink:href="#Inconsolata-65"/>
      <use x="999.999694824" xlink:href="#Inconsolata-61"/>
      <use x="1049.99967957" xlink:href="#Inconsolata-72"/>
      <use x="1099.99966431" xlink:href="#Inconsolata-63"/>
      <use x="1149.99964905" xlink:href="#Inconsolata-68"/>
      <use x="1199.99963379" xlink:href="#Inconsolata-20"/>
      <use x="1249.99961853" xlink:href="#Inconsolata-71"/>
      <use x="1299.99960327" xlink:href="#Inconsolata-75"/>
      <use x="1349.99958801" xlink:href="#Inconsolata-65"/>
      <use x="1399.99957275" xlink:href="#Inconsolata-72"/>
      <use x="1449.9995575" xlink:href="#Inconsolata-69"/>
      <use x="1499.99954224" xlink:href="#Inconsolata-65"/>
      <use x="1549.99952698" xlink:href="#Inconsolata-73"/>
     </g>
    </g>
   </g>
   <g id="patch_3">
    <path d="
M46.6019 7.2
L493.002 7.2" style="fill:none;stroke:#000000;"/>
   </g>
   <g id="patch_4">
    <path d="
M493.002 352.8
L493.002 7.2" style="fill:none;stroke:#000000;"/>
   </g>
   <g id="patch_5">
    <path d="
M46.6019 352.8
L493.002 352.8" style="fill:none;stroke:#000000;"/>
   </g>
   <g id="patch_6">
    <path d="
M46.6019 352.8
L46.6019 7.2" style="fill:none;stroke:#000000;"/>
   </g>
  </g>
 </g>
 <defs>
  <clipPath id="pdd4ef540ae">
   <rect height="345.6" width="446.4" x="46.601875" y="7.2"/>
  </clipPath>
 </defs>
</svg>
