<?xml version="1.0" encoding="utf-8" standalone="no"?>
<!DOCTYPE svg PUBLIC "-//W3C//DTD SVG 1.1//EN"
  "http://www.w3.org/Graphics/SVG/1.1/DTD/svg11.dtd">
<!-- Created with matplotlib (http://matplotlib.org/) -->
<svg height="375pt" version="1.1" viewBox="0 0 511 375" width="511pt" xmlns="http://www.w3.org/2000/svg" xmlns:xlink="http://www.w3.org/1999/xlink">
 <defs>
  <style type="text/css">
*{stroke-linecap:square;stroke-linejoin:round;}
  </style>
 </defs>
 <g id="figure_1">
  <g id="patch_1">
   <path d="
M0 375.704
L511.476 375.704
L511.476 0
L0 0
z
" style="fill:none;opacity:0.0;"/>
  </g>
  <g id="axes_1">
   <g id="patch_2">
    <path d="
M46.6019 352.8
L493.002 352.8
L493.002 7.2
L46.6019 7.2
z
" style="fill:none;opacity:0.0;"/>
   </g>
   <g id="line2d_1">
    <path clip-path="url(#pdd4ef540ae)" d="
M46.6019 336.532
L47.0305 336.602
L47.459 336.532
L47.8876 336.602
L48.3162 336.462
L48.7448 336.602
L50.0305 336.392
L50.4591 335.903
L50.8877 336.392
L51.3163 336.462
L52.602 336.252
L53.0306 336.322
L53.4592 336.252
L53.8878 336.042
L54.7449 335.972
L55.1735 336.042
L55.6021 335.833
L56.0307 335.833
L56.4592 335.623
L57.745 335.623
L58.1736 335.273
L58.6022 335.134
L59.0307 335.203
L59.4593 335.134
L59.8879 334.574
L60.3165 334.435
L60.7451 334.574
L62.888 334.295
L63.3165 333.246
L63.7451 333.805
L64.1737 332.897
L64.6023 333.666
L65.0309 333.526
L65.4595 332.966
L65.888 332.827
L66.3166 332.966
L67.1738 331.359
L67.6024 331.988
L68.4595 330.1
L70.1738 330.1
L70.6024 329.102
L71.031 329.102
L72.3168 326.106
L73.1739 326.106
L73.6025 325.107
L74.0311 325.107
L74.4597 323.11
L75.3168 323.11
L76.174 321.113
L76.6026 319.115
L77.0311 320.114
L77.8883 318.117
L78.3169 315.121
L78.7455 316.119
L79.1741 314.122
L80.0312 314.122
L80.4598 312.125
L80.8884 308.13
L81.317 307.131
L81.7455 303.137
L82.6027 299.142
L83.0313 298.144
L83.4599 294.149
L83.8884 297.145
L84.317 296.146
L84.7456 286.16
L85.1742 295.148
L85.6028 292.152
L86.4599 283.164
L86.8885 285.161
L87.3171 277.172
L88.1743 269.183
L88.6028 268.184
L89.0314 268.184
L90.3172 255.202
L90.7457 242.219
L91.1743 237.226
L92.0315 242.933
L93.3172 225.813
L93.7458 225.813
L94.1744 214.4
L94.603 220.106
L95.0316 214.4
L95.4601 197.28
L95.8887 208.693
L96.3173 202.987
L96.7459 194.427
L97.1745 194.427
L97.603 177.307
L98.0316 171.6
L98.4602 180.16
L98.8888 180.16
L99.3174 177.307
L99.746 177.307
L100.175 171.6
L100.603 163.041
L101.032 157.334
L101.46 154.481
L102.317 134.508
L102.746 140.214
L103.175 128.801
L103.603 125.948
L104.032 88.8552
L104.46 123.095
L104.889 117.388
L105.318 120.241
L105.746 114.535
L106.175 131.654
L106.603 117.388
L107.46 117.388
L107.889 114.535
L108.318 105.975
L108.746 105.975
L109.175 100.268
L109.603 108.828
L110.032 97.4151
L110.46 94.5618
L110.889 108.828
L111.318 91.7085
L111.746 91.7085
L112.175 100.268
L112.603 100.268
L113.032 71.7355
L113.461 51.7625
L113.889 57.4691
L114.318 88.8873
L114.746 88.8873
L115.175 79.4618
L115.603 73.1782
L116.032 70.0364
L116.889 57.4691
L117.318 70.0364
L118.175 70.0364
L118.604 66.8945
L119.032 70.0364
L119.461 48.0436
L119.889 35.4764
L120.318 44.9018
L120.746 57.4691
L121.604 57.4691
L122.032 54.3273
L122.461 57.4691
L122.889 54.3273
L123.318 41.76
L123.747 41.76
L124.175 51.1855
L124.604 32.3345
L125.032 44.9018
L125.461 22.9091
L125.889 29.1927
L126.318 29.1927
L127.604 38.6182
L128.032 44.9018
L128.461 66.8945
L128.889 73.1782
L129.318 66.8945
L129.747 73.1782
L130.175 73.1782
L130.604 82.6036
L131.032 73.1782
L131.461 76.32
L131.89 85.7455
L132.318 76.32
L132.747 92.0291
L133.175 85.7455
L133.604 73.1782
L134.032 79.4618
L134.461 70.0364
L134.89 82.6036
L135.318 66.8945
L135.747 38.6182
L136.175 44.9018
L136.604 94.1126
L137.033 84.8856
L137.461 87.9613
L137.89 84.8856
L138.318 84.8856
L138.747 81.8099
L139.175 84.8856
L139.604 91.0369
L140.033 81.8099
L140.461 91.0369
L140.89 84.8856
L141.318 87.9613
L141.747 84.8856
L143.033 94.1126
L143.461 94.1126
L143.89 91.0369
L144.318 94.1126
L144.747 100.264
L145.176 94.1126
L145.604 84.8856
L146.033 84.8856
L146.461 72.5829
L146.89 75.6586
L147.318 81.8099
L147.747 78.7342
L148.176 78.7342
L148.604 75.6586
L149.033 57.2045
L149.461 81.8099
L149.89 75.6586
L150.319 81.8099
L150.747 84.8856
L151.176 84.8856
L151.604 91.0369
L152.033 91.0369
L152.461 94.1126
L152.89 91.0369
L153.319 106.415
L153.747 100.264
L154.176 106.415
L154.604 109.491
L155.033 106.415
L155.462 112.567
L155.89 115.642
L156.319 106.415
L156.747 121.794
L157.176 115.642
L157.604 118.718
L158.033 91.0369
L158.462 72.5829
L158.89 117.549
L159.319 122.839
L160.176 122.839
L160.604 130.775
L161.033 130.775
L161.462 122.839
L161.89 133.42
L162.747 138.71
L163.176 138.71
L163.605 141.355
L164.033 138.71
L164.462 128.13
L164.89 130.775
L165.319 144
L165.747 144
L166.176 146.645
L166.605 154.58
L167.033 146.645
L167.462 146.645
L167.89 157.225
L168.748 146.645
L169.176 149.29
L169.605 149.29
L170.033 154.58
L170.462 157.225
L170.89 151.935
L171.319 149.29
L171.748 151.935
L172.176 157.225
L172.605 157.225
L173.462 175.741
L174.319 181.031
L174.748 188.966
L175.176 188.966
L175.605 196.902
L176.033 196.902
L176.462 194.257
L176.891 202.192
L177.319 202.192
L177.748 204.837
L178.176 204.837
L178.605 202.192
L179.033 210.127
L179.462 207.482
L179.891 210.127
L180.319 199.547
L180.748 194.257
L181.176 212.825
L181.605 217.11
L182.034 211.397
L182.462 219.967
L182.891 218.538
L183.319 222.823
L183.748 218.538
L184.176 227.108
L184.605 228.537
L185.034 228.537
L185.891 231.394
L186.319 225.68
L186.748 227.108
L187.177 234.25
L187.605 238.535
L188.034 235.679
L188.462 238.535
L188.891 242.82
L189.319 242.82
L189.748 245.677
L190.177 247.105
L190.605 249.962
L191.034 251.39
L191.462 251.39
L191.891 248.534
L192.32 244.249
L192.748 244.249
L193.605 247.105
L194.034 252.819
L194.462 255.675
L194.891 259.96
L195.32 267.102
L195.748 267.102
L196.177 265.674
L196.605 269.959
L197.034 269.959
L197.462 277.1
L197.891 275.672
L198.32 277.1
L198.748 279.957
L199.177 281.386
L199.605 281.386
L200.034 284.242
L200.463 282.814
L200.891 285.671
L201.32 294.241
L201.748 294.241
L202.177 295.669
L203.034 295.669
L203.463 300.225
L203.891 300.225
L204.748 303.953
L205.606 305.61
L206.034 308.51
L206.463 308.924
L206.891 308.924
L207.748 312.652
L208.177 311.824
L209.463 314.309
L209.891 314.723
L210.32 315.551
L210.749 316.794
L211.177 317.623
L211.606 316.794
L212.034 318.037
L212.891 318.865
L213.32 318.451
L214.177 318.451
L215.034 319.279
L215.463 320.108
L215.891 319.694
L216.32 321.351
L216.749 320.936
L218.034 322.179
L218.463 322.179
L218.892 323.007
L219.32 322.179
L219.749 323.007
L220.606 323.836
L221.034 323.836
L221.463 324.25
L221.892 324.25
L222.749 325.079
L223.177 325.079
L223.606 325.493
L224.035 325.493
L224.463 325.907
L224.892 325.907
L225.32 325.079
L225.749 325.559
L226.177 325.439
L227.035 326.04
L227.463 326.16
L227.892 326.88
L228.32 326.76
L228.749 326.76
L229.177 327.361
L230.463 328.082
L230.892 328.802
L231.32 328.922
L231.749 328.922
L232.178 329.043
L232.606 329.283
L233.035 328.922
L233.463 329.643
L233.892 329.523
L234.749 329.883
L235.606 329.523
L236.463 329.883
L236.892 330.004
L237.749 329.643
L238.178 330.004
L239.035 330.244
L239.463 330.484
L239.892 330.244
L241.606 331.085
L242.035 329.163
L242.464 330.364
L242.892 331.085
L243.749 331.085
L244.178 331.445
L245.035 331.205
L245.464 331.445
L245.892 331.325
L246.321 331.325
L246.749 331.205
L247.178 331.325
L247.606 331.565
L248.035 331.325
L248.464 331.672
L248.892 330.144
L249.321 330.908
L250.607 332.089
L251.892 332.367
L252.321 332.228
L252.749 332.506
L253.178 332.367
L253.607 332.645
L254.035 332.784
L254.464 332.784
L255.321 332.992
L255.75 332.992
L257.464 333.479
L257.892 332.367
L258.321 332.298
L258.75 332.923
L259.178 333.201
L259.607 333.131
L260.464 333.34
L262.607 334.034
L263.464 334.034
L263.893 334.173
L264.321 334.104
L265.178 334.312
L265.607 334.173
L266.035 334.382
L266.464 334.243
L266.893 334.312
L267.321 334.173
L268.178 334.59
L269.036 334.451
L269.893 334.659
L270.321 334.451
L270.321 334.451" style="fill:none;stroke:#0000ff;"/>
   </g>
   <g id="line2d_2">
    <path clip-path="url(#pdd4ef540ae)" d="
M46.6019 336.804
L52.4051 336.466
L56.4227 336.019
L59.5475 335.462
L62.2259 334.761
L64.4579 333.953
L66.2435 333.112
L68.0291 332.049
L69.8147 330.709
L71.6003 329.021
L72.9395 327.478
L74.2787 325.652
L75.6179 323.494
L76.9571 320.952
L78.2963 317.966
L79.6355 314.472
L80.9747 310.399
L82.3139 305.676
L83.6531 300.229
L84.9923 293.989
L86.3315 286.895
L88.1171 276.029
L89.9027 263.511
L91.6883 249.384
L93.9203 229.723
L97.0451 199.629
L101.955 152.064
L104.187 132.743
L105.973 119.012
L107.759 107.005
L109.544 96.7606
L110.883 90.199
L112.223 84.5421
L113.562 79.7228
L114.901 75.6665
L116.24 72.296
L117.579 69.536
L118.919 67.3154
L120.258 65.5693
L121.597 64.2395
L122.936 63.2752
L124.275 62.6324
L125.615 62.274
L126.954 62.169
L128.293 62.2917
L129.632 62.6216
L130.971 63.1424
L132.757 64.1126
L134.543 65.3794
L136.328 66.9304
L138.114 68.7599
L139.899 70.8679
L142.131 73.9013
L144.363 77.3921
L146.595 81.3609
L148.827 85.8318
L151.059 90.8289
L153.291 96.375
L155.523 102.489
L157.755 109.182
L160.434 117.982
L163.112 127.603
L165.791 138.002
L168.915 151.013
L172.487 166.823
L177.843 191.664
L184.986 224.653
L188.557 240.146
L191.682 252.789
L194.36 262.823
L197.039 272.047
L199.717 280.434
L201.949 286.78
L204.181 292.555
L206.413 297.778
L208.645 302.477
L210.877 306.684
L213.109 310.434
L215.341 313.765
L217.573 316.712
L219.805 319.313
L222.037 321.601
L224.269 323.61
L226.947 325.694
L229.626 327.467
L232.304 328.973
L234.983 330.249
L238.107 331.492
L241.679 332.643
L245.25 333.56
L249.267 334.37
L254.178 335.114
L259.535 335.697
L266.231 336.191
L274.712 336.574
L285.872 336.842
L303.282 337.011
L338.547 337.083
L493.002 337.091
L493.002 337.091" style="fill:none;stroke:#ff0000;"/>
   </g>
   <g id="line2d_3">
    <path clip-path="url(#pdd4ef540ae)" d="
M46.6019 274.255
L493.002 274.255" style="fill:none;stroke:#008000;stroke-dasharray:6.000000,6.000000;stroke-dashoffset:0.0;stroke-linecap:butt;"/>
   </g>
   <g id="matplotlib.axis_1">
    <g id="xtick_1">
     <g id="line2d_4">
      <defs>
       <path d="
M0 0
L0 -4" id="mcb557df647" style="stroke:#000000;stroke-linecap:butt;stroke-width:0.5;"/>
      </defs>
      <g>
       <use style="stroke:#000000;stroke-linecap:butt;stroke-width:0.5;" x="46.601875" xlink:href="#mcb557df647" y="352.8"/>
      </g>
     </g>
     <g id="line2d_5">
      <defs>
       <path d="
M0 0
L0 4" id="mdad270ee8e" style="stroke:#000000;stroke-linecap:butt;stroke-width:0.5;"/>
      </defs>
      <g>
       <use style="stroke:#000000;stroke-linecap:butt;stroke-width:0.5;" x="46.601875" xlink:href="#mdad270ee8e" y="7.2"/>
      </g>
     </g>
     <g id="text_1">
      <!-- 2004 -->
      <defs>
       <path d="
M25.0938 62.7031
C15.2031 62.7031 5 50.5 5 30.5938
C5 10.4062 15.2969 -1.20312 25.2031 -1.20312
C34.2031 -1.20312 44.9062 8.59375 44.9062 30.0938
C44.9062 51.2969 34.7031 62.7031 25.0938 62.7031
M34.7969 48.4062
L12.9062 20
C12 23.5 11.5 27.4062 11.5 31.7969
C11.5 47.7969 18.7969 56.5938 25 56.5938
C28.4062 56.5938 32.0938 53.9062 34.7969 48.4062
M37.0938 41.7969
C38 38.2969 38.4062 34.0938 38.4062 29.2031
C38.4062 11.7969 30.9062 5.20312 25.4062 5.20312
C21.7031 5.20312 17.9062 8.20312 15.2031 13.7031
z
" id="Inconsolata-30"/>
       <path d="
M7.70312 52.5938
L12.7969 48.5
C13.4062 49.4062 13.0938 50 13.7031 50.7969
C15.2031 53.0938 18.9062 56.5 24.2969 56.5
C31 56.5 36.2969 51.4062 36.2969 44.7031
C36.2969 37.0938 29.9062 31.5938 25.4062 27.5
C18.2969 21.0938 12.5 14.7031 7.29688 4.40625
L7.29688 0
L43.9062 0
L43.9062 6.90625
C43.2031 7.20312 42.7031 6.70312 42.5 6.5
C42.0938 6.09375 41.9062 6.09375 41.5 6.09375
L15.2969 6.09375
C20.5 15.0938 27.7969 21.2969 32.2969 25.5
C36.7969 29.7969 43.2031 36.2031 43.2031 45.2031
C43.2031 54.9062 35.2969 62.7031 25.2031 62.7031
C18.0938 62.7031 11.4062 58.9062 7.70312 52.5938" id="Inconsolata-32"/>
       <path d="
M31.2969 62.2969
L4.79688 22.4062
L4.79688 17.2031
L29.9062 17.2031
L29.9062 0
L37.0938 0
L37.0938 17.0938
L45.2031 17.0938
L45.2031 23.2969
L37.0938 23.2969
L37.0938 62.2969
z

M30 51.2031
L30 23.2969
L11.7031 23.2969
z
" id="Inconsolata-34"/>
      </defs>
      <g transform="translate(35.3275 368.324375)scale(0.12 -0.12)">
       <use xlink:href="#Inconsolata-32"/>
       <use x="49.9999847412" xlink:href="#Inconsolata-30"/>
       <use x="99.9999694824" xlink:href="#Inconsolata-30"/>
       <use x="149.999954224" xlink:href="#Inconsolata-34"/>
      </g>
     </g>
    </g>
    <g id="xtick_2">
     <g id="line2d_6">
      <g>
       <use style="stroke:#000000;stroke-linecap:butt;stroke-width:0.5;" x="91.241875" xlink:href="#mcb557df647" y="352.8"/>
      </g>
     </g>
     <g id="line2d_7">
      <g>
       <use style="stroke:#000000;stroke-linecap:butt;stroke-width:0.5;" x="91.241875" xlink:href="#mdad270ee8e" y="7.2"/>
      </g>
     </g>
     <g id="text_2">
      <!-- 2006 -->
      <defs>
       <path d="
M28.7031 63
C21.2031 63 13.2031 58.4062 9.29688 47.5
C7.20312 41.5938 6.70312 34.2969 6.70312 28.2969
C6.70312 21 7.40625 13.2031 11.4062 7.20312
C15 1.70312 20.5938 -1.09375 26.0938 -1.09375
C35.5938 -1.09375 43.9062 6.90625 43.9062 19.7969
C43.9062 32.7031 35.5938 40.2031 26.7969 40.2031
C21.4062 40.2031 16.2969 37.2969 13.5938 32.7031
C14 54 24.2031 56.7969 28.7031 56.7969
C32.7969 56.7969 35.5938 54.5938 36 54.2031
C36.5938 53.5 36.5938 52.5938 37.5 51.9062
L42.2969 57.2969
C38.7031 60.9062 33.7031 63 28.7031 63
M26.0938 34
C31.0938 34 37.0938 30.0938 37.0938 19.4062
C37.0938 9.70312 31.7031 5.09375 26.4062 5.09375
C18.7969 5.09375 13.0938 14 13.9062 25.7031
C16.7031 30.7969 21.5 34 26.0938 34" id="Inconsolata-36"/>
      </defs>
      <g transform="translate(80.0453125 368.36)scale(0.12 -0.12)">
       <use xlink:href="#Inconsolata-32"/>
       <use x="49.9999847412" xlink:href="#Inconsolata-30"/>
       <use x="99.9999694824" xlink:href="#Inconsolata-30"/>
       <use x="149.999954224" xlink:href="#Inconsolata-36"/>
      </g>
     </g>
    </g>
    <g id="xtick_3">
     <g id="line2d_8">
      <g>
       <use style="stroke:#000000;stroke-linecap:butt;stroke-width:0.5;" x="135.881875" xlink:href="#mcb557df647" y="352.8"/>
      </g>
     </g>
     <g id="line2d_9">
      <g>
       <use style="stroke:#000000;stroke-linecap:butt;stroke-width:0.5;" x="135.881875" xlink:href="#mdad270ee8e" y="7.2"/>
      </g>
     </g>
     <g id="text_3">
      <!-- 2008 -->
      <defs>
       <path d="
M25.7969 63
C16.2031 63 8.90625 56.0938 8.90625 47.7031
C8.90625 41.5938 12.7969 36 18.4062 33.0938
C11 29.5938 6 22.7969 6 15.5938
C6 6.29688 14.2031 -1.09375 24.9062 -1.09375
C35.7969 -1.09375 44.0938 6.5 44.0938 16
C44.0938 23.4062 39.0938 30 32.0938 33.2969
C38.0938 36.4062 42 42.2969 42 48.2969
C42 56.5 34.9062 63 25.7969 63
M23.7031 30.2031
C31.7031 27.7031 37 22.2031 37 16.0938
C37 10.0938 31.9062 5.20312 25.2031 5.20312
C18.4062 5.20312 13.2031 10.2969 13.2031 16.5
C13.2031 22.4062 17.7969 27.7969 23.7031 30.2031
M25.2031 57.2031
C30.7969 57.2031 35.2031 53 35.2031 47.7969
C35.2031 43 31.5 38.4062 26.5938 35.7969
C26.5938 35.7969 15.5938 40 15.5938 48.2969
C15.5938 53.2031 19.7969 57.2031 25.2031 57.2031" id="Inconsolata-38"/>
      </defs>
      <g transform="translate(124.6740625 368.36)scale(0.12 -0.12)">
       <use xlink:href="#Inconsolata-32"/>
       <use x="49.9999847412" xlink:href="#Inconsolata-30"/>
       <use x="99.9999694824" xlink:href="#Inconsolata-30"/>
       <use x="149.999954224" xlink:href="#Inconsolata-38"/>
      </g>
     </g>
    </g>
    <g id="xtick_4">
     <g id="line2d_10">
      <g>
       <use style="stroke:#000000;stroke-linecap:butt;stroke-width:0.5;" x="180.521875" xlink:href="#mcb557df647" y="352.8"/>
      </g>
     </g>
     <g id="line2d_11">
      <g>
       <use style="stroke:#000000;stroke-linecap:butt;stroke-width:0.5;" x="180.521875" xlink:href="#mdad270ee8e" y="7.2"/>
      </g>
     </g>
     <g id="text_4">
      <!-- 2010 -->
      <defs>
       <path d="
M29.9062 62.2969
L25.0938 62.2969
L8.79688 53.7969
L10.4062 49.9062
L22.9062 53.5938
L22.9062 -0.09375
L29.9062 -0.09375
z
" id="Inconsolata-31"/>
      </defs>
      <g transform="translate(169.2653125 368.324375)scale(0.12 -0.12)">
       <use xlink:href="#Inconsolata-32"/>
       <use x="49.9999847412" xlink:href="#Inconsolata-30"/>
       <use x="99.9999694824" xlink:href="#Inconsolata-31"/>
       <use x="149.999954224" xlink:href="#Inconsolata-30"/>
      </g>
     </g>
    </g>
    <g id="xtick_5">
     <g id="line2d_12">
      <g>
       <use style="stroke:#000000;stroke-linecap:butt;stroke-width:0.5;" x="225.161875" xlink:href="#mcb557df647" y="352.8"/>
      </g>
     </g>
     <g id="line2d_13">
      <g>
       <use style="stroke:#000000;stroke-linecap:butt;stroke-width:0.5;" x="225.161875" xlink:href="#mdad270ee8e" y="7.2"/>
      </g>
     </g>
     <g id="text_5">
      <!-- 2012 -->
      <g transform="translate(213.9653125 368.324375)scale(0.12 -0.12)">
       <use xlink:href="#Inconsolata-32"/>
       <use x="49.9999847412" xlink:href="#Inconsolata-30"/>
       <use x="99.9999694824" xlink:href="#Inconsolata-31"/>
       <use x="149.999954224" xlink:href="#Inconsolata-32"/>
      </g>
     </g>
    </g>
    <g id="xtick_6">
     <g id="line2d_14">
      <g>
       <use style="stroke:#000000;stroke-linecap:butt;stroke-width:0.5;" x="269.801875" xlink:href="#mcb557df647" y="352.8"/>
      </g>
     </g>
     <g id="line2d_15">
      <g>
       <use style="stroke:#000000;stroke-linecap:butt;stroke-width:0.5;" x="269.801875" xlink:href="#mdad270ee8e" y="7.2"/>
      </g>
     </g>
     <g id="text_6">
      <!-- 2014 -->
      <g transform="translate(258.5275 368.324375)scale(0.12 -0.12)">
       <use xlink:href="#Inconsolata-32"/>
       <use x="49.9999847412" xlink:href="#Inconsolata-30"/>
       <use x="99.9999694824" xlink:href="#Inconsolata-31"/>
       <use x="149.999954224" xlink:href="#Inconsolata-34"/>
      </g>
     </g>
    </g>
    <g id="xtick_7">
     <g id="line2d_16">
      <g>
       <use style="stroke:#000000;stroke-linecap:butt;stroke-width:0.5;" x="314.441875" xlink:href="#mcb557df647" y="352.8"/>
      </g>
     </g>
     <g id="line2d_17">
      <g>
       <use style="stroke:#000000;stroke-linecap:butt;stroke-width:0.5;" x="314.441875" xlink:href="#mdad270ee8e" y="7.2"/>
      </g>
     </g>
     <g id="text_7">
      <!-- 2016 -->
      <g transform="translate(303.2453125 368.36)scale(0.12 -0.12)">
       <use xlink:href="#Inconsolata-32"/>
       <use x="49.9999847412" xlink:href="#Inconsolata-30"/>
       <use x="99.9999694824" xlink:href="#Inconsolata-31"/>
       <use x="149.999954224" xlink:href="#Inconsolata-36"/>
      </g>
     </g>
    </g>
    <g id="xtick_8">
     <g id="line2d_18">
      <g>
       <use style="stroke:#000000;stroke-linecap:butt;stroke-width:0.5;" x="359.081875" xlink:href="#mcb557df647" y="352.8"/>
      </g>
     </g>
     <g id="line2d_19">
      <g>
       <use style="stroke:#000000;stroke-linecap:butt;stroke-width:0.5;" x="359.081875" xlink:href="#mdad270ee8e" y="7.2"/>
      </g>
     </g>
     <g id="text_8">
      <!-- 2018 -->
      <g transform="translate(347.8740625 368.36)scale(0.12 -0.12)">
       <use xlink:href="#Inconsolata-32"/>
       <use x="49.9999847412" xlink:href="#Inconsolata-30"/>
       <use x="99.9999694824" xlink:href="#Inconsolata-31"/>
       <use x="149.999954224" xlink:href="#Inconsolata-38"/>
      </g>
     </g>
    </g>
    <g id="xtick_9">
     <g id="line2d_20">
      <g>
       <use style="stroke:#000000;stroke-linecap:butt;stroke-width:0.5;" x="403.721875" xlink:href="#mcb557df647" y="352.8"/>
      </g>
     </g>
     <g id="line2d_21">
      <g>
       <use style="stroke:#000000;stroke-linecap:butt;stroke-width:0.5;" x="403.721875" xlink:href="#mdad270ee8e" y="7.2"/>
      </g>
     </g>
     <g id="text_9">
      <!-- 2020 -->
      <g transform="translate(392.4653125 368.324375)scale(0.12 -0.12)">
       <use xlink:href="#Inconsolata-32"/>
       <use x="49.9999847412" xlink:href="#Inconsolata-30"/>
       <use x="99.9999694824" xlink:href="#Inconsolata-32"/>
       <use x="149.999954224" xlink:href="#Inconsolata-30"/>
      </g>
     </g>
    </g>
    <g id="xtick_10">
     <g id="line2d_22">
      <g>
       <use style="stroke:#000000;stroke-linecap:butt;stroke-width:0.5;" x="448.361875" xlink:href="#mcb557df647" y="352.8"/>
      </g>
     </g>
     <g id="line2d_23">
      <g>
       <use style="stroke:#000000;stroke-linecap:butt;stroke-width:0.5;" x="448.361875" xlink:href="#mdad270ee8e" y="7.2"/>
      </g>
     </g>
     <g id="text_10">
      <!-- 2022 -->
      <g transform="translate(437.1653125 368.324375)scale(0.12 -0.12)">
       <use xlink:href="#Inconsolata-32"/>
       <use x="49.9999847412" xlink:href="#Inconsolata-30"/>
       <use x="99.9999694824" xlink:href="#Inconsolata-32"/>
       <use x="149.999954224" xlink:href="#Inconsolata-32"/>
      </g>
     </g>
    </g>
    <g id="xtick_11">
     <g id="line2d_24">
      <g>
       <use style="stroke:#000000;stroke-linecap:butt;stroke-width:0.5;" x="493.001875" xlink:href="#mcb557df647" y="352.8"/>
      </g>
     </g>
     <g id="line2d_25">
      <g>
       <use style="stroke:#000000;stroke-linecap:butt;stroke-width:0.5;" x="493.001875" xlink:href="#mdad270ee8e" y="7.2"/>
      </g>
     </g>
     <g id="text_11">
      <!-- 2024 -->
      <g transform="translate(481.7275 368.324375)scale(0.12 -0.12)">
       <use xlink:href="#Inconsolata-32"/>
       <use x="49.9999847412" xlink:href="#Inconsolata-30"/>
       <use x="99.9999694824" xlink:href="#Inconsolata-32"/>
       <use x="149.999954224" xlink:href="#Inconsolata-34"/>
      </g>
     </g>
    </g>
   </g>
   <g id="matplotlib.axis_2">
    <g id="ytick_1">
     <g id="line2d_26">
      <defs>
       <path d="
M0 0
L4 0" id="mc8fcea1516" style="stroke:#000000;stroke-linecap:butt;stroke-width:0.5;"/>
      </defs>
      <g>
       <use style="stroke:#000000;stroke-linecap:butt;stroke-width:0.5;" x="46.601875" xlink:href="#mc8fcea1516" y="337.090909091"/>
      </g>
     </g>
     <g id="line2d_27">
      <defs>
       <path d="
M0 0
L-4 0" id="m0d5b0a6425" style="stroke:#000000;stroke-linecap:butt;stroke-width:0.5;"/>
      </defs>
      <g>
       <use style="stroke:#000000;stroke-linecap:butt;stroke-width:0.5;" x="493.001875" xlink:href="#m0d5b0a6425" y="337.090909091"/>
      </g>
     </g>
     <g id="text_12">
      <!-- 0 -->
      <g transform="translate(33.813125 340.780909091)scale(0.12 -0.12)">
       <use xlink:href="#Inconsolata-30"/>
      </g>
     </g>
    </g>
    <g id="ytick_2">
     <g id="line2d_28">
      <g>
       <use style="stroke:#000000;stroke-linecap:butt;stroke-width:0.5;" x="46.601875" xlink:href="#mc8fcea1516" y="274.254545455"/>
      </g>
     </g>
     <g id="line2d_29">
      <g>
       <use style="stroke:#000000;stroke-linecap:butt;stroke-width:0.5;" x="493.001875" xlink:href="#m0d5b0a6425" y="274.254545455"/>
      </g>
     </g>
     <g id="text_13">
      <!-- 20 -->
      <g transform="translate(28.08875 277.944545455)scale(0.12 -0.12)">
       <use xlink:href="#Inconsolata-32"/>
       <use x="49.9999847412" xlink:href="#Inconsolata-30"/>
      </g>
     </g>
    </g>
    <g id="ytick_3">
     <g id="line2d_30">
      <g>
       <use style="stroke:#000000;stroke-linecap:butt;stroke-width:0.5;" x="46.601875" xlink:href="#mc8fcea1516" y="211.418181818"/>
      </g>
     </g>
     <g id="line2d_31">
      <g>
       <use style="stroke:#000000;stroke-linecap:butt;stroke-width:0.5;" x="493.001875" xlink:href="#m0d5b0a6425" y="211.418181818"/>
      </g>
     </g>
     <g id="text_14">
      <!-- 40 -->
      <g transform="translate(27.78875 215.108181818)scale(0.12 -0.12)">
       <use xlink:href="#Inconsolata-34"/>
       <use x="49.9999847412" xlink:href="#Inconsolata-30"/>
      </g>
     </g>
    </g>
    <g id="ytick_4">
     <g id="line2d_32">
      <g>
       <use style="stroke:#000000;stroke-linecap:butt;stroke-width:0.5;" x="46.601875" xlink:href="#mc8fcea1516" y="148.581818182"/>
      </g>
     </g>
     <g id="line2d_33">
      <g>
       <use style="stroke:#000000;stroke-linecap:butt;stroke-width:0.5;" x="493.001875" xlink:href="#m0d5b0a6425" y="148.581818182"/>
      </g>
     </g>
     <g id="text_15">
      <!-- 60 -->
      <g transform="translate(28.0175 152.289630682)scale(0.12 -0.12)">
       <use xlink:href="#Inconsolata-36"/>
       <use x="49.9999847412" xlink:href="#Inconsolata-30"/>
      </g>
     </g>
    </g>
    <g id="ytick_5">
     <g id="line2d_34">
      <g>
       <use style="stroke:#000000;stroke-linecap:butt;stroke-width:0.5;" x="46.601875" xlink:href="#mc8fcea1516" y="85.7454545455"/>
      </g>
     </g>
     <g id="line2d_35">
      <g>
       <use style="stroke:#000000;stroke-linecap:butt;stroke-width:0.5;" x="493.001875" xlink:href="#m0d5b0a6425" y="85.7454545455"/>
      </g>
     </g>
     <g id="text_16">
      <!-- 80 -->
      <g transform="translate(27.933125 89.4532670455)scale(0.12 -0.12)">
       <use xlink:href="#Inconsolata-38"/>
       <use x="49.9999847412" xlink:href="#Inconsolata-30"/>
      </g>
     </g>
    </g>
    <g id="ytick_6">
     <g id="line2d_36">
      <g>
       <use style="stroke:#000000;stroke-linecap:butt;stroke-width:0.5;" x="46.601875" xlink:href="#mc8fcea1516" y="22.9090909091"/>
      </g>
     </g>
     <g id="line2d_37">
      <g>
       <use style="stroke:#000000;stroke-linecap:butt;stroke-width:0.5;" x="493.001875" xlink:href="#m0d5b0a6425" y="22.9090909091"/>
      </g>
     </g>
     <g id="text_17">
      <!-- 100 -->
      <g transform="translate(22.26875 26.5990909091)scale(0.12 -0.12)">
       <use xlink:href="#Inconsolata-31"/>
       <use x="49.9999847412" xlink:href="#Inconsolata-30"/>
       <use x="99.9999694824" xlink:href="#Inconsolata-30"/>
      </g>
     </g>
    </g>
    <g id="text_18">
     <!-- Normalized weekly search queries -->
     <defs>
      <path d="
M5 0
L11.7031 0
L11.7031 49
L39.0938 -0.09375
L44.7031 -0.09375
L44.7031 59.7031
C44.7031 60.4062 44.7969 60.5938 45.0938 61.0938
C45.2031 61.2969 45.4062 61.7969 45.2969 62.2969
L37.9062 62.2969
L37.9062 16.0938
L11.7969 62.2969
L5 62.2969
z
" id="Inconsolata-4e"/>
      <path id="Inconsolata-20"/>
      <path d="
M4.5 45.5938
L23.0938 0.09375
L21.5938 -3.20312
C20.7969 -5.09375 19.9062 -7 18.5 -8.5
C16.5938 -10.5938 14.2031 -11.5 12.0938 -11.5
C8.70312 -11.5 7 -9.20312 6.70312 -8.79688
C6.40625 -8.29688 6.5 -7.59375 5.90625 -7.09375
L2.20312 -13.5938
C4.79688 -16.0938 8.29688 -17.4062 12.0938 -17.4062
C16.2031 -17.4062 20.5 -15.9062 23.5 -12.5
C25.5 -10.2031 26.5 -7.79688 27.5 -5.20312
L41.7031 32.5
C43.4062 36.7969 44.9062 41.2031 46.2969 45.7031
L38.7969 45.7031
C38 41.5 36.7031 37.5 35.2969 33.5
L26.5938 9
L13.2031 42.7031
C13.0938 43 13.0938 43.2031 13.0938 43.5
C13.0938 44.2031 13.5938 44.7031 13.5 45.5938
z
" id="Inconsolata-79"/>
      <path d="
M6.90625 0
L14.2969 0
L14.2969 26.2969
C14.2969 29.2969 14.5938 31.5938 16.5 34.0938
C18.2969 36.4062 22.7031 40.5 27.5 40.5
C29.7969 40.5 32.0938 39.5 33.7031 37.5938
C36.2031 34.5938 36.2031 30.7031 36.2031 27.5
L36.2031 0
L43.2969 0
L43.2969 27.7031
L43.2969 27.7031
C43.2969 31.2031 43.2031 35 41.5938 38.7031
C39.2969 43.7969 34.7031 46.7031 29.5 46.7031
C23.2969 46.7031 17.5938 42.7031 14.2969 37.5938
L14.2969 64.0938
C14.2969 64.4062 14.2969 64.7031 14.5938 65
C14.9062 65.2969 15.2969 65.5938 15.2969 66.0938
C15.2969 66.2031 15.2969 66.2969 15.2031 66.4062
L6.90625 66.4062
z
" id="Inconsolata-68"/>
      <path d="
M10.5938 45.7031
L10.5938 39.7969
L21.5938 39.7969
L21.5938 5.70312
L10 5.70312
L10 0
L39.5938 0
L39.5938 5.70312
L28.9062 5.70312
L28.9062 45.7031
z

M25.4062 65.5
C22.5 65.5 20.2031 63.2031 20.2031 60.4062
C20.2031 57.5938 22.5 55.2969 25.4062 55.2969
C28.2969 55.2969 30.5938 57.5938 30.5938 60.4062
C30.5938 63.2031 28.2969 65.5 25.4062 65.5" id="Inconsolata-69"/>
      <path d="
M6.20312 45.5938
L6.20312 20.0938
C6.20312 16.2031 6.20312 12.2031 8 8.09375
C10.5938 2.09375 16.2031 -1.20312 22.2031 -1.20312
C27.9062 -1.20312 33.2969 1.90625 36.2969 6.90625
L36.2031 3.5
C36.2031 2.29688 36.2031 1.09375 36.4062 0
L44 0
C43.5 1.29688 43.4062 2.79688 43.4062 4.09375
L43.4062 45.5938
L36.2031 45.5938
L36.2031 20.5
C36.2031 17 35.9062 14.2969 34.4062 11.5
C32.2969 7.59375 28.2031 4.70312 23.7969 4.70312
C20.2969 4.70312 16.9062 6.70312 15.0938 10.2969
C13.5 13.5 13.5 17.0938 13.5 20.0938
L13.5 45.5938
z
" id="Inconsolata-75"/>
      <path d="
M6.59375 66.4062
L6.59375 -0.09375
L13.7969 -0.09375
L13.7969 17.2031
L19.9062 22.7969
L38.5 -0.5
C38.5 -0.5 42.4062 -0.09375 47.0938 -0.09375
C47.4062 -0.09375 47.5938 -0.09375 47.7969 -0.09375
L25.4062 27.2031
L44.7031 45.2969
L42.0938 45.2969
C40.2969 45.2969 38.5 45.4062 36.7031 45.9062
L13.7969 24.5938
L13.7969 63.7969
C13.7969 64.2031 13.9062 64.5 14.2031 65
C14.5 65.2969 14.9062 65.7031 14.7969 66.4062
z
" id="Inconsolata-6b"/>
      <path d="
M37.0938 39
C34.9062 43.7031 30 46.7969 23.7031 46.7969
C15 46.7969 4.40625 40.5938 4.40625 23.2031
C4.40625 6.29688 13.7969 -1.09375 22.5938 -1.09375
C28.4062 -1.09375 33.7969 2.20312 36.7031 7.29688
L36.7031 3.29688
C36.7031 2.20312 36.7969 1.09375 37.0938 0
L44.2969 0
C43.9062 1.29688 43.9062 2.79688 43.9062 4.20312
L43.7969 63.5938
C43.7969 64.2031 43.7969 64.4062 44.2031 65
C44.4062 65.2969 44.7969 65.7969 44.7031 66.5
L37.0938 66.5
z

M24 40.9062
C28 40.9062 33.9062 38.7969 35.7031 32
C36.2969 29.9062 36.5 27.4062 36.5 22.2969
C36.5 18.7969 36.2969 16.2969 35.5 13.9062
C33.7969 8.5 29 5.29688 24.2969 5.29688
C19.0938 5.29688 11.4062 9.29688 11.4062 24.2969
C11.4062 37.4062 18.7031 40.9062 24 40.9062" id="Inconsolata-64"/>
      <path d="
M25.7969 46.7031
C14.9062 46.7031 4.79688 38.9062 4.79688 22.2969
C4.79688 7 14.2969 -1.09375 26.7031 -1.09375
C33.2969 -1.09375 39.2031 1.29688 43.0938 6
L39.0938 9.90625
C36.2031 6.5 31.7969 4.70312 27.2969 4.70312
C21.2031 4.70312 12.2969 8.09375 11.7969 21.7969
L44.2031 21.7969
C44.5 24.9062 44.4062 27.9062 43.9062 30.5
C41.7969 42.7969 33.2969 46.7031 25.7969 46.7031
M12 27.2969
C13.5 38.0938 20.4062 41.2031 25.2969 41.2031
C32.7031 41.2031 38 34.7031 37.0938 27.2969
z
" id="Inconsolata-65"/>
      <path d="
M37.2969 39
C37.2969 38.9062 34.0938 46.7969 24 46.7969
C14 46.7969 4.20312 38.7031 4.20312 23.2031
C4.20312 8.40625 12.9062 -1.09375 23 -1.09375
C28.7969 -1.09375 34.0938 2.20312 37 7.29688
L37 -16.7031
L44.0938 -16.7031
L44.0938 45.5938
L37.2969 45.5938
z

M24.2969 40.9062
C28.4062 40.9062 33.5938 38.7969 35.5938 33.2031
C36.5 30.5938 36.7031 27.7969 36.7031 22.2031
C36.7031 18.7969 36.5 16.2969 35.7969 13.9062
C34 8.5 29.2969 5.29688 24.5938 5.29688
C18 5.29688 11.4062 11.2969 11.4062 24.2031
C11.4062 36.2031 18.2031 40.9062 24.2969 40.9062" id="Inconsolata-71"/>
      <path d="
M45.5938 38.0938
C42 43.4062 35.9062 46.5938 28.5 46.5938
C15.0938 46.5938 5.59375 36.5 5.59375 22.7969
C5.59375 9 15.0938 -1.20312 28.0938 -1.20312
C34.4062 -1.20312 40.5938 1.40625 44.9062 6.09375
L40.7969 10.9062
C37.7031 7.40625 33.2031 5.40625 28.7031 5.40625
C19.7969 5.40625 13 12.7969 13 23.5
C13 33.9062 19.7031 40.4062 28.0938 40.4062
C35.9062 40.4062 39.5938 35 39.9062 34.4062
C40.2969 33.7031 39.7031 32.7031 40.5 32.0938
z
" id="Inconsolata-63"/>
      <path d="
M43.2031 39.5938
C39 44.2031 32.9062 46.7031 26.0938 46.7031
C15.5 46.7031 8.59375 40.7969 8.59375 34
C8.59375 26 17.2031 23.0938 19.7031 22.2031
C23.5938 20.7969 28.5938 19.5938 32 18
C35.7969 16.2031 36.5 13.7969 36.5 12.2031
C36.5 7.90625 31.2969 5 24.7969 5
C17 5 12 9.70312 10.5 11.2969
C10.2031 11.7031 10.2031 12 10.2031 12.4062
C10.2031 12.5 10.2969 13.0938 9.79688 13.2969
L5.59375 6.20312
C11 1.20312 18 -1.09375 24.9062 -1.09375
C37.4062 -1.09375 43.9062 6.29688 43.9062 13.2031
C43.9062 16.2969 42.5938 20.5 37.2031 23.5
C32.0938 26.4062 24.7031 27.4062 20.4062 29.5
C16.7031 31.2969 15.9062 33.5 15.9062 35.0938
C15.9062 38.7031 20.4062 41.2969 25.5 41.2969
C32.0938 41.2969 36.5 37.2969 38.2031 35
C38.5 34.7031 38.4062 34.4062 38.4062 34.0938
C38.4062 33.5 38.7969 33.2969 39 33.2969
z
" id="Inconsolata-73"/>
      <path d="
M9 40.2969
L12.5 35.7031
C16.2969 39.5938 21.4062 40.7969 25.7031 40.7969
C31.0938 40.7969 33.7969 38.5 35.0938 36.4062
C36.5938 33.9062 36.5 30.9062 36.5 28.5
L36.5 26.9062
L35.0938 26.9062
C28.2969 26.9062 21.0938 26.9062 15.2969 24.7969
C8.09375 22.2031 4.90625 16.7969 4.90625 11.7969
C4.90625 5.09375 10.7031 -1.20312 20.2031 -1.20312
C25.7969 -1.20312 31.5938 0.90625 36.5938 5
L36.5938 0
L43.4062 0
L43.4062 28.2969
C43.4062 32 43.2969 35.5 41.2031 39.0938
C38.2031 44 32.4062 46.5938 25.2969 46.5938
C19.2031 46.5938 13.2969 44.7031 9 40.2969
M36.7969 21.4062
L36.7969 18.2969
C36.7969 16 36.7969 13 33.7031 9.70312
C32 8 27.7031 4.29688 21.7031 4.29688
C15.5938 4.29688 12.0938 8.20312 12.0938 12.2031
C12.0938 15.5938 14.4062 19.2969 20.0938 20.7031
C24.2969 21.7031 30.4062 21.4062 35.2031 21.4062
z
" id="Inconsolata-61"/>
      <path d="
M1.5 45.7031
L10.7031 -0.09375
L17.2031 -0.09375
L25.2031 29.5
L33.7031 -0.09375
L40.4062 -0.09375
C43.5 15 46.0938 30.2969 48 45.5938
L41.4062 45.5938
C41.5938 40.0938 41.0938 35 37.0938 9
L27.5 41.4062
L23.0938 41.4062
L15.2031 8.90625
L8.59375 41.9062
C8.40625 42.5938 8.40625 42.9062 8.70312 43.7031
C8.79688 44.2031 9.09375 44.9062 8.79688 45.7031
z
" id="Inconsolata-77"/>
      <path d="
M46 22.5938
C46 38.4062 36 46.5938 25.5938 46.5938
C14 46.5938 4 36.5938 4 22.4062
C4 8.5 13.9062 -1.29688 25.4062 -1.29688
C36.2031 -1.29688 46 7.40625 46 22.5938
M25.0938 40.5
C31.7031 40.5 38.7031 34.7969 38.7031 22.2969
C38.7031 10.7969 32.0938 5 25.5 5
C18.2031 5 11.5938 11.7969 11.5938 23.0938
C11.5938 34.2969 18.0938 40.5 25.0938 40.5" id="Inconsolata-6f"/>
      <path d="
M3.70312 0
L10.2969 0
L10.2969 30.4062
C10.2969 32.5938 10.5 34.5938 11.7969 37
C13.4062 40 15.4062 41.2031 17.2969 41.2031
C18.9062 41.2031 20.7031 40.2031 21.5 37.7031
C22.0938 35.7969 22 33.5938 22 31.7031
L22 0
L28.7031 0
L28.7031 30.2031
C28.7031 32.5938 28.9062 34.5 30.5938 37.4062
C31.4062 38.5938 33.0938 41.5 35.9062 41.5
C37.4062 41.5 38.7969 40.5938 39.5 38.9062
C40.4062 37 40.2031 34.4062 40.2031 32.2969
L40.2031 -0.09375
L47 -0.09375
L47 32.4062
C47 36.2031 47.0938 40 45.0938 43.0938
C43.4062 45.7031 40.5 46.7031 38 46.7031
C33.5938 46.7031 29.5 44.0938 27.7031 40.0938
C27 43.9062 23.7969 46.7031 19.7031 46.7031
C15.9062 46.7031 12.4062 44.2969 10.2969 41.0938
L10.4062 45.5938
L3.70312 45.5938
z
" id="Inconsolata-6d"/>
      <path d="
M9.90625 45.5938
L9.90625 -0.09375
L17.0938 -0.09375
L17.0938 22.0938
C17.0938 24.9062 17.2031 27.9062 20.2969 32.7969
C24.5 39.4062 29.9062 40.5 33.2031 40.5
C37 40.5 39.4062 38.7031 40.7031 37.0938
C41.2969 36.2969 41.5938 35.5 42.4062 34.7969
L45.7969 41.7031
C42.9062 44.7031 38.7031 46.7031 33.5938 46.7031
C26.9062 46.7031 20.0938 43.2969 17.0938 36.7969
L17.4062 45.5938
z
" id="Inconsolata-72"/>
      <path d="
M7 45.7031
L7 39.4062
L33.2969 39.4062
L5 4.79688
L5 -0.09375
L44.9062 -0.09375
L44.9062 6.70312
C43.7031 6.90625 43.2969 6.09375 41.9062 6.09375
L14.7031 6.09375
L42.5938 40.7969
L42.5938 45.7031
z
" id="Inconsolata-7a"/>
      <path d="
M8.40625 66.4062
L8.40625 60.5938
L21.4062 60.5938
L21.4062 5.70312
L7.79688 5.70312
L7.79688 0
L42.0938 0
L42.0938 5.70312
L28.5938 5.70312
L28.5938 66.4062
z
" id="Inconsolata-6c"/>
     </defs>
     <g transform="translate(17.26875 273.545625)rotate(-90.0)scale(0.12 -0.12)">
      <use xlink:href="#Inconsolata-4e"/>
      <use x="49.9999847412" xlink:href="#Inconsolata-6f"/>
      <use x="99.9999694824" xlink:href="#Inconsolata-72"/>
      <use x="149.999954224" xlink:href="#Inconsolata-6d"/>
      <use x="199.999938965" xlink:href="#Inconsolata-61"/>
      <use x="249.999923706" xlink:href="#Inconsolata-6c"/>
      <use x="299.999908447" xlink:href="#Inconsolata-69"/>
      <use x="349.999893188" xlink:href="#Inconsolata-7a"/>
      <use x="399.99987793" xlink:href="#Inconsolata-65"/>
      <use x="449.999862671" xlink:href="#Inconsolata-64"/>
      <use x="499.999847412" xlink:href="#Inconsolata-20"/>
      <use x="549.999832153" xlink:href="#Inconsolata-77"/>
      <use x="599.999816895" xlink:href="#Inconsolata-65"/>
      <use x="649.999801636" xlink:href="#Inconsolata-65"/>
      <use x="699.999786377" xlink:href="#Inconsolata-6b"/>
      <use x="749.999771118" xlink:href="#Inconsolata-6c"/>
      <use x="799.999755859" xlink:href="#Inconsolata-79"/>
      <use x="849.999740601" xlink:href="#Inconsolata-20"/>
      <use x="899.999725342" xlink:href="#Inconsolata-73"/>
      <use x="949.999710083" xlink:href="#Inconsolata-65"/>
      <use x="999.999694824" xlink:href="#Inconsolata-61"/>
      <use x="1049.99967957" xlink:href="#Inconsolata-72"/>
      <use x="1099.99966431" xlink:href="#Inconsolata-63"/>
      <use x="1149.99964905" xlink:href="#Inconsolata-68"/>
      <use x="1199.99963379" xlink:href="#Inconsolata-20"/>
      <use x="1249.99961853" xlink:href="#Inconsolata-71"/>
      <use x="1299.99960327" xlink:href="#Inconsolata-75"/>
      <use x="1349.99958801" xlink:href="#Inconsolata-65"/>
      <use x="1399.99957275" xlink:href="#Inconsolata-72"/>
      <use x="1449.9995575" xlink:href="#Inconsolata-69"/>
      <use x="1499.99954224" xlink:href="#Inconsolata-65"/>
      <use x="1549.99952698" xlink:href="#Inconsolata-73"/>
     </g>
    </g>
   </g>
   <g id="patch_3">
    <path d="
M46.6019 7.2
L493.002 7.2" style="fill:none;stroke:#000000;"/>
   </g>
   <g id="patch_4">
    <path d="
M493.002 352.8
L493.002 7.2" style="fill:none;stroke:#000000;"/>
   </g>
   <g id="patch_5">
    <path d="
M46.6019 352.8
L493.002 352.8" style="fill:none;stroke:#000000;"/>
   </g>
   <g id="patch_6">
    <path d="
M46.6019 352.8
L46.6019 7.2" style="fill:none;stroke:#000000;"/>
   </g>
  </g>
 </g>
 <defs>
  <clipPath id="pdd4ef540ae">
   <rect height="345.6" width="446.4" x="46.601875" y="7.2"/>
  </clipPath>
 </defs>
</svg>
